G04 ================== begin FILE IDENTIFICATION RECORD ==================*
G04 Layout Name:  C:/Users/abcd/Documents/GitHub/sophum_esc/PCB/sophum_esc.brd*
G04 Film Name:    BOTTOM*
G04 File Format:  Gerber RS274X*
G04 File Origin:  Cadence Allegro 16.6-2015-S066*
G04 Origin Date:  Fri Aug 30 21:46:36 2019*
G04 *
G04 Layer:  BOARD GEOMETRY/OUTLINE*
G04 Layer:  ETCH/BOTTOM*
G04 Layer:  PIN/BOTTOM*
G04 Layer:  VIA CLASS/BOTTOM*
G04 *
G04 Offset:    (0.00 0.00)*
G04 Mirror:    No*
G04 Mode:      Positive*
G04 Rotation:  0*
G04 FullContactRelief:  No*
G04 UndefLineWidth:     6.00*
G04 ================== end FILE IDENTIFICATION RECORD ====================*
%FSLAX55Y55*MOIN*%
%IR0*IPPOS*OFA0.00000B0.00000*MIA0B0*SFA1.00000B1.00000*%
%ADD13C,.016*%
%ADD11C,.02165*%
%ADD12C,.06299*%
%ADD10R,.06299X.06299*%
%ADD14C,.006*%
%ADD18C,.03004*%
%ADD17C,.07702*%
%ADD16C,.03568*%
%ADD15R,.07702X.07702*%
G75*
%LPD*%
G75*
G36*
G01X2004Y2004D02*
Y77996D01*
X117996D01*
Y2004D01*
X2004D01*
G37*
%LPC*%
G75*
G36*
G01X87640Y69043D02*
Y66324D01*
X72714Y51398D01*
X43415D01*
X38054Y46038D01*
X38068Y45940D01*
G02X34944Y44540I-1768J-240D01*
G03X34322Y44522I-304J-260D01*
G02X31908Y44117I-1422J1078D01*
G03X31286Y43785I-222J-332D01*
G01Y41376D01*
G02X29282I-1002J-1476D01*
G01Y46345D01*
X40139Y57202D01*
X70584D01*
X76560Y63178D01*
Y69043D01*
G02X77802Y72287I1002J1476D01*
G01X77900Y72273D01*
X79628Y74002D01*
X93648D01*
X95376Y72273D01*
X95474Y72287D01*
G02X93946Y70759I240J-1768D01*
G01X93960Y70857D01*
X92818Y71998D01*
X88537D01*
G03X88189Y71401I0J-400D01*
G02X87640Y69043I-1551J-882D01*
G37*
G36*
G01X79461Y40220D02*
G03X79872Y39883I395J63D01*
G02X78179Y37822I69J-1783D01*
G03X77768Y38159I-395J-63D01*
G02X79461Y40220I-69J1783D01*
G37*
G36*
G01X79462Y25878D02*
G03X79873Y25541I395J63D01*
G02X78180Y23480I69J-1783D01*
G03X77769Y23817I-395J-63D01*
G02X79462Y25878I-69J1783D01*
G37*
G36*
G01X43998Y18821D02*
Y38231D01*
X40198Y42031D01*
Y44324D01*
G02X42202I1002J1476D01*
G01Y42861D01*
X46002Y39061D01*
Y18821D01*
X46142Y18778D01*
G02X43858I-1142J-3678D01*
G01X43998Y18821D01*
G37*
G36*
G01X38340Y13177D02*
X41415Y10102D01*
X49086D01*
X51546Y12561D01*
Y43012D01*
G03X51158Y43412I-400J0D01*
G02X52982Y44955I56J1783D01*
G01X52968Y44857D01*
X53548Y44277D01*
Y11731D01*
X49916Y8098D01*
X40585D01*
X36923Y11760D01*
X36793Y11692D01*
G02X38408Y13307I-1793J3408D01*
G01X38340Y13177D01*
G37*
G36*
G01X79462Y11078D02*
G03X79873Y10741I395J63D01*
G02X78180Y8680I69J-1783D01*
G03X77769Y9017I-395J-63D01*
G02X79462Y11078I-69J1783D01*
G37*
G36*
G01X86609Y23198D02*
X84598Y25209D01*
Y33491D01*
X87209Y36102D01*
X92309D01*
X94024Y37816D01*
G03X93741Y38498I-283J282D01*
G01X86609D01*
X84598Y40509D01*
Y48591D01*
X86509Y50502D01*
X92609D01*
X99109Y57002D01*
X114191D01*
X116602Y54591D01*
Y41009D01*
X114492Y38900D01*
X116602Y36791D01*
Y23209D01*
X114843Y21451D01*
G03X114900Y20839I283J-282D01*
G02X115437Y20177I-850J-1238D01*
G01X115452Y20140D01*
X116602Y18991D01*
Y5409D01*
X114091Y2898D01*
X86609D01*
X84598Y4909D01*
Y15691D01*
X90309Y21402D01*
X93341D01*
G03X93624Y22084I0J400D01*
G01X92509Y23198D01*
X86609D01*
G37*
G54D18*
X54500Y59963D03*
Y63900D03*
X50563D03*
Y59963D03*
X46626D03*
X42689D03*
X38752D03*
X34815D03*
X30878D03*
Y63900D03*
X34815D03*
X38752D03*
X42689D03*
X46626D03*
G54D17*
X25000Y15100D03*
G54D16*
X58081Y19600D03*
X58181Y48700D03*
X58081Y34400D03*
G54D15*
X15000Y15100D03*
%LPD*%
G75*
G36*
G01X115900Y5700D02*
X113800Y3600D01*
X86900D01*
X85300Y5200D01*
Y15400D01*
X90600Y20700D01*
X95008D01*
X95009Y20698D01*
X113902D01*
X115900Y18700D01*
Y5700D01*
G37*
G36*
G01X86900Y23900D02*
X85300Y25500D01*
Y33200D01*
X87500Y35400D01*
X92600D01*
X95700Y38500D01*
X113900D01*
X115900Y36500D01*
Y23500D01*
X113800Y21400D01*
X95300D01*
X92800Y23900D01*
X92223D01*
G03X92077I-73J-1500D01*
G01X89073D01*
G03X88927I-73J-1500D01*
G01X86900D01*
G37*
G36*
G01X95408Y39200D02*
X86900D01*
X85300Y40800D01*
Y48300D01*
X86800Y49800D01*
X92900D01*
X99400Y56300D01*
X113900D01*
X115900Y54300D01*
Y41300D01*
X113802Y39202D01*
X95409D01*
X95408Y39200D01*
G37*
G54D10*
X15000Y15100D03*
G54D11*
X4895Y71714D03*
X11295Y39047D03*
X4895Y60786D03*
X66038Y8500D03*
X77700Y10800D03*
X79942Y8958D03*
X58081Y19600D03*
X85059Y22400D03*
Y51400D03*
Y37200D03*
X49207Y33047D03*
X30193Y36984D03*
X70641Y38378D03*
X104790Y60481D03*
X29783Y70514D03*
X34714Y73822D03*
X21400Y63600D03*
X17895Y30786D03*
X70641Y24072D03*
X77700Y25600D03*
X79942Y23758D03*
X77699Y39942D03*
X58081Y34400D03*
X58181Y48700D03*
X79941Y38100D03*
X95714Y70519D03*
X77562D03*
X30284Y39900D03*
X82100Y70519D03*
X32900Y45600D03*
X86638Y70519D03*
X36300Y45700D03*
X41200Y45800D03*
X51214Y45195D03*
X113866Y60481D03*
X109328D03*
G54D12*
X45000Y15100D03*
X35000D03*
X25000D03*
G54D13*
X90450Y19050D03*
X93600D03*
X104600Y10150D03*
Y13300D03*
Y16450D03*
Y19600D03*
X87300Y12750D03*
Y15900D03*
X93600Y12750D03*
X90450D03*
Y15900D03*
X93600D03*
X85959Y75811D03*
X82022D03*
X78085D03*
X74148D03*
Y71874D03*
Y67937D03*
Y64000D03*
X92150Y22400D03*
X89000D03*
X92150Y51400D03*
X89000D03*
X92150Y37200D03*
X89000D03*
X39700Y36000D03*
X37200Y33500D03*
X42200D03*
Y38500D03*
X37200D03*
X58400Y75811D03*
Y71874D03*
Y67937D03*
Y60063D03*
X62337D03*
X66274D03*
X70211D03*
Y64000D03*
X66274D03*
X62337D03*
X58400D03*
X54500Y59963D03*
Y63900D03*
X50563D03*
Y59963D03*
X46626D03*
X42689D03*
X38752D03*
X34815D03*
X30878D03*
Y63900D03*
X34815D03*
X38752D03*
X42689D03*
X46626D03*
X104600Y27550D03*
Y30700D03*
Y33850D03*
Y37000D03*
X87300Y27550D03*
Y30700D03*
X93600Y27550D03*
X90450D03*
Y30700D03*
X93600D03*
X90450Y33850D03*
X93600D03*
X87200Y45000D03*
X90350D03*
X93500D03*
Y41850D03*
X90350D03*
X87200D03*
X90350Y48150D03*
X93500D03*
X104600Y44950D03*
Y48100D03*
Y51250D03*
Y54400D03*
X107750Y10150D03*
X110900D03*
X114050D03*
Y13300D03*
X110900D03*
X107750D03*
Y16450D03*
X110900D03*
X114050D03*
Y19600D03*
X110900D03*
X107750D03*
Y27550D03*
X110900D03*
X114050D03*
Y30700D03*
X110900D03*
X107750D03*
Y33850D03*
X110900D03*
X114050D03*
Y37000D03*
X110900D03*
X107750D03*
Y44950D03*
X110900D03*
X114050D03*
Y48100D03*
X110900D03*
X107750D03*
Y51250D03*
X110900D03*
X114050D03*
Y54400D03*
X110900D03*
X107750D03*
G54D14*
G01X0Y0D02*
Y80000D01*
X120000D01*
Y0D01*
X0D01*
G01X45000Y15100D02*
Y38646D01*
X41200Y42446D01*
Y45800D01*
G01X51214Y45195D02*
X52547Y43862D01*
Y12146D01*
X49501Y9100D01*
X41000D01*
X35000Y15100D01*
G01X30284Y39900D02*
Y45930D01*
X40554Y56200D01*
X70999D01*
X77562Y62763D01*
Y70519D01*
G01X95714D02*
X93233Y73000D01*
X80043D01*
X77562Y70519D01*
G01X32900Y45600D02*
X41500Y54200D01*
X71299D01*
X82100Y65001D01*
Y70519D01*
G01X36300Y45700D02*
X43000Y52400D01*
X72299D01*
X86638Y66739D01*
Y70519D01*
M02*
