G04 ================== begin FILE IDENTIFICATION RECORD ==================*
G04 Layout Name:  C:/Users/abcd/Documents/GitHub/sophum_esc/PCB/sophum_esc.brd*
G04 Film Name:    DRILL*
G04 File Format:  Gerber RS274X*
G04 File Origin:  Cadence Allegro 16.6-2015-S066*
G04 Origin Date:  Fri Aug 30 21:46:36 2019*
G04 *
G04 Layer:  MANUFACTURING/NCLEGEND-1-4*
G04 Layer:  MANUFACTURING/NCDRILL_LEGEND*
G04 Layer:  MANUFACTURING/NCDRILL_FIGURE*
G04 Layer:  BOARD GEOMETRY/OUTLINE*
G04 *
G04 Offset:    (0.00 0.00)*
G04 Mirror:    No*
G04 Mode:      Positive*
G04 Rotation:  0*
G04 FullContactRelief:  No*
G04 UndefLineWidth:     6.00*
G04 ================== end FILE IDENTIFICATION RECORD ====================*
%FSLAX55Y55*MOIN*%
%IR0*IPPOS*OFA0.00000B0.00000*MIA0B0*SFA1.00000B1.00000*%
%AMMACRO12*
1,1,.006,0.0,.025*
20,1,.006,0.0,.025,.021655,-.025,0.0*
1,1,.006,.021655,-.025*
20,1,.006,.021655,-.025,-.021655,-.025,0.0*
1,1,.006,-.021655,-.025*
20,1,.006,-.021655,-.025,0.0,.025,0.0*
1,1,.006,0.0,.025*
1,1,.006,.0065,-.01082*
20,1,.006,.0065,-.01082,.0065,.00361,0.0*
1,1,.006,.0065,.00361*
1,1,.006,.0065,.00109*
20,1,.006,.0065,.00109,.00506,.00253,0.0*
1,1,.006,.00506,.00253*
20,1,.006,.00506,.00253,.00289,.00325,0.0*
1,1,.006,.00289,.00325*
20,1,.006,.00289,.00325,.00037,.00361,0.0*
1,1,.006,.00037,.00361*
20,1,.006,.00037,.00361,-.00216,.00289,0.0*
1,1,.006,-.00216,.00289*
20,1,.006,-.00216,.00289,-.00433,.00145,0.0*
1,1,.006,-.00433,.00145*
20,1,.006,-.00433,.00145,-.00577,-.00072,0.0*
1,1,.006,-.00577,-.00072*
20,1,.006,-.00577,-.00072,-.00649,-.0036,0.0*
1,1,.006,-.00649,-.0036*
20,1,.006,-.00649,-.0036,-.00577,-.00649,0.0*
1,1,.006,-.00577,-.00649*
20,1,.006,-.00577,-.00649,-.00433,-.00866,0.0*
1,1,.006,-.00433,-.00866*
20,1,.006,-.00433,-.00866,-.00216,-.0101,0.0*
1,1,.006,-.00216,-.0101*
20,1,.006,-.00216,-.0101,.00037,-.01082,0.0*
1,1,.006,.00037,-.01082*
20,1,.006,.00037,-.01082,.00289,-.01046,0.0*
1,1,.006,.00289,-.01046*
20,1,.006,.00289,-.01046,.00506,-.00938,0.0*
1,1,.006,.00506,-.00938*
20,1,.006,.00506,-.00938,.0065,-.00793,0.0*
1,1,.006,.0065,-.00793*
%
%ADD12MACRO12*%
%AMMACRO11*
1,1,.006,0.0,.025*
20,1,.006,0.0,.025,.021655,-.025,0.0*
1,1,.006,.021655,-.025*
20,1,.006,.021655,-.025,-.021655,-.025,0.0*
1,1,.006,-.021655,-.025*
20,1,.006,-.021655,-.025,0.0,.025,0.0*
1,1,.006,0.0,.025*
1,1,.006,-.00649,-.01082*
20,1,.006,-.00649,-.01082,-.00649,.01083,0.0*
1,1,.006,-.00649,.01083*
1,1,.006,-.00649,0.0*
20,1,.006,-.00649,0.0,-.00469,.00217,0.0*
1,1,.006,-.00469,.00217*
20,1,.006,-.00469,.00217,-.00252,.00325,0.0*
1,1,.006,-.00252,.00325*
20,1,.006,-.00252,.00325,-.00036,.00361,0.0*
1,1,.006,-.00036,.00361*
20,1,.006,-.00036,.00361,.00289,.00289,0.0*
1,1,.006,.00289,.00289*
20,1,.006,.00289,.00289,.00506,.00145,0.0*
1,1,.006,.00506,.00145*
20,1,.006,.00506,.00145,.0065,-.00108,0.0*
1,1,.006,.0065,-.00108*
20,1,.006,.0065,-.00108,.0065,-.00396,0.0*
1,1,.006,.0065,-.00396*
20,1,.006,.0065,-.00396,.00578,-.00685,0.0*
1,1,.006,.00578,-.00685*
20,1,.006,.00578,-.00685,.00434,-.00902,0.0*
1,1,.006,.00434,-.00902*
20,1,.006,.00434,-.00902,.00181,-.01046,0.0*
1,1,.006,.00181,-.01046*
20,1,.006,.00181,-.01046,-.00036,-.01082,0.0*
1,1,.006,-.00036,-.01082*
20,1,.006,-.00036,-.01082,-.00252,-.01046,0.0*
1,1,.006,-.00252,-.01046*
20,1,.006,-.00252,-.01046,-.00469,-.00938,0.0*
1,1,.006,-.00469,-.00938*
20,1,.006,-.00469,-.00938,-.00649,-.00757,0.0*
1,1,.006,-.00649,-.00757*
%
%ADD11MACRO11*%
%AMMACRO10*
1,1,.006,-.0101,-.03248*
20,1,.006,-.0101,-.03248,-.00505,-.03536,0.0*
1,1,.006,-.00505,-.03536*
20,1,.006,-.00505,-.03536,.00073,-.03609,0.0*
1,1,.006,.00073,-.03609*
20,1,.006,.00073,-.03609,.00578,-.03536,0.0*
1,1,.006,.00578,-.03536*
20,1,.006,.00578,-.03536,.01011,-.03176,0.0*
1,1,.006,.01011,-.03176*
20,1,.006,.01011,-.03176,.013,-.0267,0.0*
1,1,.006,.013,-.0267*
20,1,.006,.013,-.0267,.013,.00722,0.0*
1,1,.006,.013,.00722*
1,1,.006,.013,.00145*
20,1,.006,.013,.00145,.01011,.00434,0.0*
1,1,.006,.01011,.00434*
20,1,.006,.01011,.00434,.00578,.0065,0.0*
1,1,.006,.00578,.0065*
20,1,.006,.00578,.0065,.00073,.00722,0.0*
1,1,.006,.00073,.00722*
20,1,.006,.00073,.00722,-.00505,.00578,0.0*
1,1,.006,-.00505,.00578*
20,1,.006,-.00505,.00578,-.00866,.00289,0.0*
1,1,.006,-.00866,.00289*
20,1,.006,-.00866,.00289,-.01155,-.00216,0.0*
1,1,.006,-.01155,-.00216*
20,1,.006,-.01155,-.00216,-.01299,-.00721,0.0*
1,1,.006,-.01299,-.00721*
20,1,.006,-.01299,-.00721,-.01227,-.01155,0.0*
1,1,.006,-.01227,-.01155*
20,1,.006,-.01227,-.01155,-.00938,-.0166,0.0*
1,1,.006,-.00938,-.0166*
20,1,.006,-.00938,-.0166,-.00505,-.02021,0.0*
1,1,.006,-.00505,-.02021*
20,1,.006,-.00505,-.02021,.00073,-.02165,0.0*
1,1,.006,.00073,-.02165*
20,1,.006,.00073,-.02165,.00506,-.02093,0.0*
1,1,.006,.00506,-.02093*
20,1,.006,.00506,-.02093,.01011,-.01804,0.0*
1,1,.006,.01011,-.01804*
20,1,.006,.01011,-.01804,.013,-.01515,0.0*
1,1,.006,.013,-.01515*
%
%ADD10MACRO10*%
%ADD13C,.006*%
G75*
%LPD*%
G75*
G54D10*
X15000Y15100D03*
X44950Y-141900D03*
X45000Y15100D03*
X35000D03*
X25000D03*
G54D11*
X4895Y71714D03*
X11295Y39047D03*
X4895Y60786D03*
X44950Y-116900D03*
X66038Y8500D03*
X77700Y10800D03*
X79942Y8958D03*
X58081Y19600D03*
X85059Y22400D03*
Y51400D03*
Y37200D03*
X49207Y33047D03*
X30193Y36984D03*
X70641Y38378D03*
X104790Y60481D03*
X29783Y70514D03*
X34714Y73822D03*
X21400Y63600D03*
X17895Y30786D03*
X70641Y24072D03*
X77700Y25600D03*
X79942Y23758D03*
X77699Y39942D03*
X58081Y34400D03*
X58181Y48700D03*
X79941Y38100D03*
X95714Y70519D03*
X77562D03*
X30284Y39900D03*
X82100Y70519D03*
X32900Y45600D03*
X86638Y70519D03*
X36300Y45700D03*
X41200Y45800D03*
X51214Y45195D03*
X113866Y60481D03*
X109328D03*
G54D12*
X44950Y-91900D03*
X90450Y19050D03*
X93600D03*
X104600Y10150D03*
Y13300D03*
Y16450D03*
Y19600D03*
X87300Y12750D03*
Y15900D03*
X93600Y12750D03*
X90450D03*
Y15900D03*
X93600D03*
X85959Y75811D03*
X82022D03*
X78085D03*
X74148D03*
Y71874D03*
Y67937D03*
Y64000D03*
X92150Y22400D03*
X89000D03*
X92150Y51400D03*
X89000D03*
X92150Y37200D03*
X89000D03*
X39700Y36000D03*
X37200Y33500D03*
X42200D03*
Y38500D03*
X37200D03*
X58400Y75811D03*
Y71874D03*
Y67937D03*
Y60063D03*
X62337D03*
X66274D03*
X70211D03*
Y64000D03*
X66274D03*
X62337D03*
X58400D03*
X54500Y59963D03*
Y63900D03*
X50563D03*
Y59963D03*
X46626D03*
X42689D03*
X38752D03*
X34815D03*
X30878D03*
Y63900D03*
X34815D03*
X38752D03*
X42689D03*
X46626D03*
X104600Y27550D03*
Y30700D03*
Y33850D03*
Y37000D03*
X87300Y27550D03*
Y30700D03*
X93600Y27550D03*
X90450D03*
Y30700D03*
X93600D03*
X90450Y33850D03*
X93600D03*
X87200Y45000D03*
X90350D03*
X93500D03*
Y41850D03*
X90350D03*
X87200D03*
X90350Y48150D03*
X93500D03*
X104600Y44950D03*
Y48100D03*
Y51250D03*
Y54400D03*
X107750Y10150D03*
X110900D03*
X114050D03*
Y13300D03*
X110900D03*
X107750D03*
Y16450D03*
X110900D03*
X114050D03*
Y19600D03*
X110900D03*
X107750D03*
Y27550D03*
X110900D03*
X114050D03*
Y30700D03*
X110900D03*
X107750D03*
Y33850D03*
X110900D03*
X114050D03*
Y37000D03*
X110900D03*
X107750D03*
Y44950D03*
X110900D03*
X114050D03*
Y48100D03*
X110900D03*
X107750D03*
Y51250D03*
X110900D03*
X114050D03*
Y54400D03*
X110900D03*
X107750D03*
G54D13*
G01X11005Y-73150D02*
Y-60650D01*
X16895D01*
G01X14725Y-66692D02*
X11005D01*
G01X24490Y-60650D02*
X28210D01*
G01X26350D02*
Y-73150D01*
G01X24490D02*
X28210D01*
G01X39680Y-66900D02*
X42780D01*
Y-70650D01*
X41850Y-71900D01*
X40765Y-72733D01*
X39215Y-73150D01*
X37665Y-72733D01*
X36580Y-71900D01*
X35650Y-70650D01*
X35030Y-69192D01*
X34720Y-67525D01*
Y-66067D01*
X35030Y-64817D01*
X35650Y-63358D01*
X36580Y-62108D01*
X37510Y-61275D01*
X38750Y-60650D01*
X39835D01*
X41075Y-61067D01*
X42005Y-61900D01*
G01X47740Y-60650D02*
Y-69608D01*
X48360Y-71484D01*
X49600Y-72733D01*
X51150Y-73150D01*
X52700Y-72733D01*
X53940Y-71484D01*
X54560Y-69608D01*
Y-60650D01*
G01X60450Y-73150D02*
Y-60650D01*
X64325D01*
X65565Y-61275D01*
X66340Y-62108D01*
X66650Y-63775D01*
X66340Y-65442D01*
X65410Y-66483D01*
X64325Y-67108D01*
X60450D01*
G01X64325D02*
X66650Y-73150D01*
G01X79050D02*
X72850D01*
Y-60650D01*
X79050D01*
G01X76570Y-66692D02*
X72850D01*
G01X0Y-154400D02*
Y-4400D01*
X483600D01*
Y-154400D01*
X0D01*
G01Y-79400D02*
X483600D01*
G01X0Y-104400D02*
X483600D01*
G01X0Y-129400D02*
X483600D01*
G01X0Y0D02*
Y80000D01*
X120000D01*
Y0D01*
X0D01*
G01Y-29400D02*
X483600D01*
G01X0Y-54400D02*
X483600D01*
G01X89900D02*
Y-154400D01*
G01X83390Y-23150D02*
Y-10650D01*
X86490D01*
X87730Y-11275D01*
X88660Y-12108D01*
X89435Y-13358D01*
X90055Y-14817D01*
X90210Y-16900D01*
X90055Y-18983D01*
X89435Y-20442D01*
X88660Y-21692D01*
X87730Y-22525D01*
X86490Y-23150D01*
X83390D01*
G01X96100D02*
Y-10650D01*
X99975D01*
X101215Y-11275D01*
X101990Y-12108D01*
X102300Y-13775D01*
X101990Y-15442D01*
X101060Y-16483D01*
X99975Y-17108D01*
X96100D01*
G01X99975D02*
X102300Y-23150D01*
G01X109740Y-10650D02*
X113460D01*
G01X111600D02*
Y-23150D01*
G01X109740D02*
X113460D01*
G01X120900Y-10650D02*
Y-23150D01*
X127100D01*
G01X133300Y-10650D02*
Y-23150D01*
X139500D01*
G01X164610Y-11692D02*
X163680Y-11067D01*
X162595Y-10650D01*
X161355D01*
X159960Y-11275D01*
X158875Y-12317D01*
X158100Y-13567D01*
X157480Y-15650D01*
X157325Y-17525D01*
X157635Y-19400D01*
X158100Y-20650D01*
X159030Y-21900D01*
X160115Y-22733D01*
X161200Y-23150D01*
X162285D01*
X163370Y-22733D01*
X164300Y-22109D01*
X165075Y-21275D01*
G01X170345Y-23150D02*
Y-10650D01*
G01X176855D02*
Y-23150D01*
G01Y-16900D02*
X170345D01*
G01X182125Y-23150D02*
X186000Y-10650D01*
X189875Y-23150D01*
G01X188480Y-18775D02*
X183520D01*
G01X195300Y-23150D02*
Y-10650D01*
X199175D01*
X200415Y-11275D01*
X201190Y-12108D01*
X201500Y-13775D01*
X201190Y-15442D01*
X200260Y-16483D01*
X199175Y-17108D01*
X195300D01*
G01X199175D02*
X201500Y-23150D01*
G01X210800Y-10650D02*
Y-23150D01*
G01X207235Y-10650D02*
X214365D01*
G01X223200Y-23567D02*
X222890Y-23358D01*
Y-22942D01*
X223200Y-22733D01*
X223510Y-22942D01*
Y-23358D01*
X223200Y-23567D01*
G01Y-17942D02*
X222890Y-17733D01*
Y-17317D01*
X223200Y-17108D01*
X223510Y-17317D01*
Y-17733D01*
X223200Y-17942D01*
G01X248000Y-10650D02*
Y-23150D01*
G01X244435Y-10650D02*
X251565D01*
G01X260400Y-23150D02*
X259160Y-22942D01*
X258075Y-22109D01*
X257145Y-20858D01*
X256525Y-19400D01*
X256215Y-17733D01*
Y-16067D01*
X256525Y-14400D01*
X257145Y-12942D01*
X258075Y-11692D01*
X259160Y-10858D01*
X260400Y-10650D01*
X261640Y-10858D01*
X262725Y-11692D01*
X263655Y-12942D01*
X264275Y-14400D01*
X264585Y-16067D01*
Y-17733D01*
X264275Y-19400D01*
X263655Y-20858D01*
X262725Y-22109D01*
X261640Y-22942D01*
X260400Y-23150D01*
G01X269700D02*
Y-10650D01*
X273420D01*
X274660Y-11275D01*
X275590Y-12733D01*
X275900Y-14400D01*
X275590Y-16067D01*
X274815Y-17317D01*
X273420Y-17942D01*
X269700D01*
G01X297600Y-10650D02*
Y-23150D01*
G01X295430Y-14817D02*
X299770D01*
G01X310000Y-23150D02*
X309070Y-22942D01*
X308140Y-22109D01*
X307520Y-20650D01*
X307210Y-18983D01*
X307520Y-17317D01*
X308140Y-15858D01*
X309070Y-15025D01*
X310000Y-14817D01*
X310930Y-15025D01*
X311860Y-15858D01*
X312480Y-17317D01*
X312635Y-18983D01*
X312480Y-20650D01*
X311860Y-22109D01*
X310930Y-22942D01*
X310000Y-23150D01*
G01X336040Y-16483D02*
X336660Y-15858D01*
X337125Y-14817D01*
X337435Y-13358D01*
X337125Y-12108D01*
X336505Y-11275D01*
X335420Y-10650D01*
X331235D01*
Y-23150D01*
X336350D01*
X337435Y-22317D01*
X338055Y-21067D01*
X338365Y-19608D01*
X338055Y-18150D01*
X337125Y-16900D01*
X336040Y-16483D01*
X331235D01*
G01X347200Y-23150D02*
X345960Y-22942D01*
X344875Y-22109D01*
X343945Y-20858D01*
X343325Y-19400D01*
X343015Y-17733D01*
Y-16067D01*
X343325Y-14400D01*
X343945Y-12942D01*
X344875Y-11692D01*
X345960Y-10858D01*
X347200Y-10650D01*
X348440Y-10858D01*
X349525Y-11692D01*
X350455Y-12942D01*
X351075Y-14400D01*
X351385Y-16067D01*
Y-17733D01*
X351075Y-19400D01*
X350455Y-20858D01*
X349525Y-22109D01*
X348440Y-22942D01*
X347200Y-23150D01*
G01X359600Y-10650D02*
Y-23150D01*
G01X356035Y-10650D02*
X363165D01*
G01X372000D02*
Y-23150D01*
G01X368435Y-10650D02*
X375565D01*
G01X384400Y-23150D02*
X383160Y-22942D01*
X382075Y-22109D01*
X381145Y-20858D01*
X380525Y-19400D01*
X380215Y-17733D01*
Y-16067D01*
X380525Y-14400D01*
X381145Y-12942D01*
X382075Y-11692D01*
X383160Y-10858D01*
X384400Y-10650D01*
X385640Y-10858D01*
X386725Y-11692D01*
X387655Y-12942D01*
X388275Y-14400D01*
X388585Y-16067D01*
Y-17733D01*
X388275Y-19400D01*
X387655Y-20858D01*
X386725Y-22109D01*
X385640Y-22942D01*
X384400Y-23150D01*
G01X392770D02*
Y-10650D01*
X396800Y-21067D01*
X400830Y-10650D01*
Y-23150D01*
G01X162595Y-71484D02*
X163835Y-72525D01*
X165230Y-73150D01*
X166470D01*
X167710Y-72525D01*
X168640Y-71484D01*
X169105Y-70025D01*
X168795Y-68567D01*
X168020Y-67317D01*
X166625Y-66483D01*
X164765Y-66067D01*
X163680Y-65233D01*
X163215Y-63775D01*
X163525Y-62317D01*
X164300Y-61275D01*
X165385Y-60650D01*
X166470D01*
X167555Y-61067D01*
X168485Y-62108D01*
G01X176390Y-60650D02*
X180110D01*
G01X178250D02*
Y-73150D01*
G01X176390D02*
X180110D01*
G01X187705Y-60650D02*
X193595D01*
X187705Y-73150D01*
X193595D01*
G01X206150D02*
X199950D01*
Y-60650D01*
X206150D01*
G01X203670Y-66692D02*
X199950D01*
G01X172050Y-98150D02*
X173135Y-97942D01*
X174375Y-97317D01*
X175150Y-96275D01*
X175460Y-94817D01*
X175150Y-93359D01*
X174220Y-92108D01*
X172825Y-91483D01*
X171275D01*
X170345Y-91067D01*
X169570Y-90025D01*
X169260Y-88567D01*
X169725Y-87108D01*
X170810Y-86067D01*
X172050Y-85650D01*
X173290Y-86067D01*
X174375Y-87108D01*
X174840Y-88567D01*
X174530Y-90025D01*
X173755Y-91067D01*
X172825Y-91483D01*
X171275D01*
X169880Y-92108D01*
X168950Y-93359D01*
X168640Y-94817D01*
X168950Y-96275D01*
X169725Y-97317D01*
X170965Y-97942D01*
X172050Y-98150D01*
G01X184450Y-98567D02*
X184140Y-98358D01*
Y-97942D01*
X184450Y-97733D01*
X184760Y-97942D01*
Y-98358D01*
X184450Y-98567D01*
G01X196850Y-85650D02*
X195610Y-86067D01*
X194680Y-87108D01*
X194060Y-88358D01*
X193595Y-90025D01*
X193440Y-91900D01*
X193595Y-93775D01*
X194060Y-95442D01*
X194680Y-96692D01*
X195610Y-97733D01*
X196850Y-98150D01*
X198090Y-97733D01*
X199020Y-96692D01*
X199640Y-95442D01*
X200105Y-93775D01*
X200260Y-91900D01*
X200105Y-90025D01*
X199640Y-88358D01*
X199020Y-87108D01*
X198090Y-86067D01*
X196850Y-85650D01*
G01X165850Y-123150D02*
Y-110650D01*
X163990Y-113150D01*
G01Y-123150D02*
X167710D01*
G01X178250Y-110650D02*
X177010Y-111067D01*
X176080Y-112108D01*
X175460Y-113358D01*
X174995Y-115025D01*
X174840Y-116900D01*
X174995Y-118775D01*
X175460Y-120442D01*
X176080Y-121692D01*
X177010Y-122733D01*
X178250Y-123150D01*
X179490Y-122733D01*
X180420Y-121692D01*
X181040Y-120442D01*
X181505Y-118775D01*
X181660Y-116900D01*
X181505Y-115025D01*
X181040Y-113358D01*
X180420Y-112108D01*
X179490Y-111067D01*
X178250Y-110650D01*
G01X190650Y-123567D02*
X190340Y-123358D01*
Y-122942D01*
X190650Y-122733D01*
X190960Y-122942D01*
Y-123358D01*
X190650Y-123567D01*
G01X203050Y-110650D02*
X201810Y-111067D01*
X200880Y-112108D01*
X200260Y-113358D01*
X199795Y-115025D01*
X199640Y-116900D01*
X199795Y-118775D01*
X200260Y-120442D01*
X200880Y-121692D01*
X201810Y-122733D01*
X203050Y-123150D01*
X204290Y-122733D01*
X205220Y-121692D01*
X205840Y-120442D01*
X206305Y-118775D01*
X206460Y-116900D01*
X206305Y-115025D01*
X205840Y-113358D01*
X205220Y-112108D01*
X204290Y-111067D01*
X203050Y-110650D01*
G01X156240Y-145650D02*
X157170Y-147109D01*
X158410Y-147942D01*
X159805Y-148150D01*
X161045Y-147942D01*
X162285Y-146900D01*
X163060Y-145650D01*
X163215Y-144400D01*
X162905Y-142942D01*
X161820Y-141900D01*
X160735Y-141483D01*
X159340D01*
G01X160735D02*
X161665Y-140858D01*
X162440Y-139817D01*
X162750Y-138567D01*
X162440Y-137317D01*
X161665Y-136275D01*
X160270Y-135650D01*
X158875Y-135858D01*
X157480Y-136692D01*
G01X169415Y-146692D02*
X170500Y-147733D01*
X171740Y-148150D01*
X172980Y-147733D01*
X174065Y-146484D01*
X174840Y-144608D01*
X175150Y-142733D01*
Y-140442D01*
X174840Y-138567D01*
X174065Y-136900D01*
X173135Y-136067D01*
X172050Y-135650D01*
X170810Y-136067D01*
X169880Y-136900D01*
X169260Y-138150D01*
X168950Y-139817D01*
X169260Y-141275D01*
X170035Y-142733D01*
X170965Y-143567D01*
X172050Y-143775D01*
X173290Y-143359D01*
X174220Y-142317D01*
X175150Y-140442D01*
G01X184450Y-148567D02*
X184140Y-148358D01*
Y-147942D01*
X184450Y-147733D01*
X184760Y-147942D01*
Y-148358D01*
X184450Y-148567D01*
G01X193440Y-145650D02*
X194370Y-147109D01*
X195610Y-147942D01*
X197005Y-148150D01*
X198245Y-147942D01*
X199485Y-146900D01*
X200260Y-145650D01*
X200415Y-144400D01*
X200105Y-142942D01*
X199020Y-141900D01*
X197935Y-141483D01*
X196540D01*
G01X197935D02*
X198865Y-140858D01*
X199640Y-139817D01*
X199950Y-138567D01*
X199640Y-137317D01*
X198865Y-136275D01*
X197470Y-135650D01*
X196075Y-135858D01*
X194680Y-136692D01*
G01X208940Y-148150D02*
X209250Y-145442D01*
X209715Y-143150D01*
X210335Y-141067D01*
X211110Y-138775D01*
X212350Y-135650D01*
X206150D01*
G01X113925Y-48150D02*
X117800Y-35650D01*
X121675Y-48150D01*
G01X120280Y-43775D02*
X115320D01*
G01X127100Y-35650D02*
Y-48150D01*
X133300D01*
G01X139500Y-35650D02*
Y-48150D01*
X145700D01*
G01X163990Y-35650D02*
Y-44608D01*
X164610Y-46484D01*
X165850Y-47733D01*
X167400Y-48150D01*
X168950Y-47733D01*
X170190Y-46484D01*
X170810Y-44608D01*
Y-35650D01*
G01X176235Y-48150D02*
Y-35650D01*
X183365Y-48150D01*
Y-35650D01*
G01X190340D02*
X194060D01*
G01X192200D02*
Y-48150D01*
G01X190340D02*
X194060D01*
G01X204600Y-35650D02*
Y-48150D01*
G01X201035Y-35650D02*
X208165D01*
G01X213745Y-46484D02*
X214985Y-47525D01*
X216380Y-48150D01*
X217620D01*
X218860Y-47525D01*
X219790Y-46484D01*
X220255Y-45025D01*
X219945Y-43567D01*
X219170Y-42317D01*
X217775Y-41483D01*
X215915Y-41067D01*
X214830Y-40233D01*
X214365Y-38775D01*
X214675Y-37317D01*
X215450Y-36275D01*
X216535Y-35650D01*
X217620D01*
X218705Y-36067D01*
X219635Y-37108D01*
G01X237925Y-48150D02*
X241800Y-35650D01*
X245675Y-48150D01*
G01X244280Y-43775D02*
X239320D01*
G01X251100Y-48150D02*
Y-35650D01*
X254975D01*
X256215Y-36275D01*
X256990Y-37108D01*
X257300Y-38775D01*
X256990Y-40442D01*
X256060Y-41483D01*
X254975Y-42108D01*
X251100D01*
G01X254975D02*
X257300Y-48150D01*
G01X269700D02*
X263500D01*
Y-35650D01*
X269700D01*
G01X267220Y-41692D02*
X263500D01*
G01X289540Y-35650D02*
X293260D01*
G01X291400D02*
Y-48150D01*
G01X289540D02*
X293260D01*
G01X300235D02*
Y-35650D01*
X307365Y-48150D01*
Y-35650D01*
G01X324570Y-48150D02*
Y-35650D01*
X328600Y-46067D01*
X332630Y-35650D01*
Y-48150D01*
G01X339140Y-35650D02*
X342860D01*
G01X341000D02*
Y-48150D01*
G01X339140D02*
X342860D01*
G01X350300Y-35650D02*
Y-48150D01*
X356500D01*
G01X362545Y-46484D02*
X363785Y-47525D01*
X365180Y-48150D01*
X366420D01*
X367660Y-47525D01*
X368590Y-46484D01*
X369055Y-45025D01*
X368745Y-43567D01*
X367970Y-42317D01*
X366575Y-41483D01*
X364715Y-41067D01*
X363630Y-40233D01*
X363165Y-38775D01*
X363475Y-37317D01*
X364250Y-36275D01*
X365335Y-35650D01*
X366420D01*
X367505Y-36067D01*
X368435Y-37108D01*
G01X308450Y-73150D02*
Y-60650D01*
X312170D01*
X313410Y-61275D01*
X314340Y-62733D01*
X314650Y-64400D01*
X314340Y-66067D01*
X313565Y-67317D01*
X312170Y-67942D01*
X308450D01*
G01X320850Y-60650D02*
Y-73150D01*
X327050D01*
G01X332475D02*
X336350Y-60650D01*
X340225Y-73150D01*
G01X338830Y-68775D02*
X333870D01*
G01X348750Y-60650D02*
Y-73150D01*
G01X345185Y-60650D02*
X352315D01*
G01X364250Y-73150D02*
X358050D01*
Y-60650D01*
X364250D01*
G01X361770Y-66692D02*
X358050D01*
G01X370140Y-73150D02*
Y-60650D01*
X373240D01*
X374480Y-61275D01*
X375410Y-62108D01*
X376185Y-63358D01*
X376805Y-64817D01*
X376960Y-66900D01*
X376805Y-68983D01*
X376185Y-70442D01*
X375410Y-71692D01*
X374480Y-72525D01*
X373240Y-73150D01*
X370140D01*
G01X308450Y-98150D02*
Y-85650D01*
X312170D01*
X313410Y-86275D01*
X314340Y-87733D01*
X314650Y-89400D01*
X314340Y-91067D01*
X313565Y-92317D01*
X312170Y-92942D01*
X308450D01*
G01X320850Y-85650D02*
Y-98150D01*
X327050D01*
G01X332475D02*
X336350Y-85650D01*
X340225Y-98150D01*
G01X338830Y-93775D02*
X333870D01*
G01X348750Y-85650D02*
Y-98150D01*
G01X345185Y-85650D02*
X352315D01*
G01X364250Y-98150D02*
X358050D01*
Y-85650D01*
X364250D01*
G01X361770Y-91692D02*
X358050D01*
G01X370140Y-98150D02*
Y-85650D01*
X373240D01*
X374480Y-86275D01*
X375410Y-87108D01*
X376185Y-88358D01*
X376805Y-89817D01*
X376960Y-91900D01*
X376805Y-93983D01*
X376185Y-95442D01*
X375410Y-96692D01*
X374480Y-97525D01*
X373240Y-98150D01*
X370140D01*
G01X308450Y-123150D02*
Y-110650D01*
X312170D01*
X313410Y-111275D01*
X314340Y-112733D01*
X314650Y-114400D01*
X314340Y-116067D01*
X313565Y-117317D01*
X312170Y-117942D01*
X308450D01*
G01X320850Y-110650D02*
Y-123150D01*
X327050D01*
G01X332475D02*
X336350Y-110650D01*
X340225Y-123150D01*
G01X338830Y-118775D02*
X333870D01*
G01X348750Y-110650D02*
Y-123150D01*
G01X345185Y-110650D02*
X352315D01*
G01X364250Y-123150D02*
X358050D01*
Y-110650D01*
X364250D01*
G01X361770Y-116692D02*
X358050D01*
G01X370140Y-123150D02*
Y-110650D01*
X373240D01*
X374480Y-111275D01*
X375410Y-112108D01*
X376185Y-113358D01*
X376805Y-114817D01*
X376960Y-116900D01*
X376805Y-118983D01*
X376185Y-120442D01*
X375410Y-121692D01*
X374480Y-122525D01*
X373240Y-123150D01*
X370140D01*
G01X308450Y-148150D02*
Y-135650D01*
X312170D01*
X313410Y-136275D01*
X314340Y-137733D01*
X314650Y-139400D01*
X314340Y-141067D01*
X313565Y-142317D01*
X312170Y-142942D01*
X308450D01*
G01X320850Y-135650D02*
Y-148150D01*
X327050D01*
G01X332475D02*
X336350Y-135650D01*
X340225Y-148150D01*
G01X338830Y-143775D02*
X333870D01*
G01X348750Y-135650D02*
Y-148150D01*
G01X345185Y-135650D02*
X352315D01*
G01X364250Y-148150D02*
X358050D01*
Y-135650D01*
X364250D01*
G01X361770Y-141692D02*
X358050D01*
G01X370140Y-148150D02*
Y-135650D01*
X373240D01*
X374480Y-136275D01*
X375410Y-137108D01*
X376185Y-138358D01*
X376805Y-139817D01*
X376960Y-141900D01*
X376805Y-143983D01*
X376185Y-145442D01*
X375410Y-146692D01*
X374480Y-147525D01*
X373240Y-148150D01*
X370140D01*
G01X279000Y-54400D02*
Y-154400D01*
G01X432450Y-73150D02*
X431210Y-72942D01*
X430125Y-72109D01*
X429195Y-70858D01*
X428575Y-69400D01*
X428265Y-67733D01*
Y-66067D01*
X428575Y-64400D01*
X429195Y-62942D01*
X430125Y-61692D01*
X431210Y-60858D01*
X432450Y-60650D01*
X433690Y-60858D01*
X434775Y-61692D01*
X435705Y-62942D01*
X436325Y-64400D01*
X436635Y-66067D01*
Y-67733D01*
X436325Y-69400D01*
X435705Y-70858D01*
X434775Y-72109D01*
X433690Y-72942D01*
X432450Y-73150D01*
G01X433690Y-69817D02*
X435550Y-73150D01*
G01X444850Y-60650D02*
Y-73150D01*
G01X441285Y-60650D02*
X448415D01*
G01X457250Y-73150D02*
Y-67525D01*
X454150Y-60650D01*
G01X460350D02*
X457250Y-67525D01*
G01X432450Y-98150D02*
Y-85650D01*
X430590Y-88150D01*
G01Y-98150D02*
X434310D01*
G01X444850D02*
Y-85650D01*
X442990Y-88150D01*
G01Y-98150D02*
X446710D01*
G01X453840Y-96275D02*
X454770Y-97317D01*
X455855Y-97942D01*
X457250Y-98150D01*
X458645Y-97733D01*
X459730Y-96900D01*
X460505Y-95442D01*
X460660Y-93775D01*
X460350Y-92108D01*
X459575Y-91067D01*
X458490Y-90233D01*
X457405Y-90025D01*
X456320Y-90233D01*
X454925Y-91067D01*
X455390Y-85650D01*
X459575D01*
G01X435240Y-120650D02*
X436170Y-122109D01*
X437410Y-122942D01*
X438805Y-123150D01*
X440045Y-122942D01*
X441285Y-121900D01*
X442060Y-120650D01*
X442215Y-119400D01*
X441905Y-117942D01*
X440820Y-116900D01*
X439735Y-116483D01*
X438340D01*
G01X439735D02*
X440665Y-115858D01*
X441440Y-114817D01*
X441750Y-113567D01*
X441440Y-112317D01*
X440665Y-111275D01*
X439270Y-110650D01*
X437875Y-110858D01*
X436480Y-111692D01*
G01X448105Y-117942D02*
X449190Y-116483D01*
X450120Y-115650D01*
X451360Y-115233D01*
X452445Y-115650D01*
X453220Y-116483D01*
X453840Y-117733D01*
X453995Y-119192D01*
X453840Y-120442D01*
X453220Y-121692D01*
X452290Y-122733D01*
X451205Y-123150D01*
X449965Y-122733D01*
X448880Y-121484D01*
X448260Y-119608D01*
X448105Y-117525D01*
X448415Y-114817D01*
X448880Y-113358D01*
X449655Y-111900D01*
X450740Y-110858D01*
X451825Y-110650D01*
X452910Y-111067D01*
X453685Y-112108D01*
G01X446710Y-148150D02*
Y-135650D01*
X440975Y-144608D01*
X448725D01*
G01X406100Y-54400D02*
Y-154400D01*
M02*
