G04 ================== begin FILE IDENTIFICATION RECORD ==================*
G04 Layout Name:  C:/Users/abcd/Documents/GitHub/sophum_esc/PCB/sophum_esc.brd*
G04 Film Name:    SILKTOP*
G04 File Format:  Gerber RS274X*
G04 File Origin:  Cadence Allegro 16.6-2015-S066*
G04 Origin Date:  Fri Aug 30 21:46:36 2019*
G04 *
G04 Layer:  REF DES/SILKSCREEN_TOP*
G04 Layer:  PACKAGE GEOMETRY/SILKSCREEN_TOP*
G04 Layer:  BOARD GEOMETRY/SILKSCREEN_TOP*
G04 Layer:  BOARD GEOMETRY/OUTLINE*
G04 *
G04 Offset:    (0.00 0.00)*
G04 Mirror:    No*
G04 Mode:      Positive*
G04 Rotation:  0*
G04 FullContactRelief:  No*
G04 UndefLineWidth:     6.00*
G04 ================== end FILE IDENTIFICATION RECORD ====================*
%FSLAX55Y55*MOIN*%
%IR0*IPPOS*OFA0.00000B0.00000*MIA0B0*SFA1.00000B1.00000*%
%ADD10C,.006*%
%ADD11C,.00591*%
G75*
%LPD*%
G75*
G54D10*
G01X0Y0D02*
Y80000D01*
X120000D01*
Y0D01*
X0D01*
G01X7922Y13525D02*
Y16625D01*
X7462Y16005D01*
G01Y13525D02*
X8382D01*
G01X13808Y50787D02*
X13683Y50627D01*
X13600Y50440D01*
Y50227D01*
X13725Y49987D01*
X13933Y49800D01*
X14183Y49667D01*
X14600Y49560D01*
X14975Y49533D01*
X15350Y49587D01*
X15600Y49667D01*
X15850Y49827D01*
X16017Y50013D01*
X16100Y50200D01*
Y50387D01*
X16017Y50573D01*
X15892Y50733D01*
X15725Y50867D01*
G01X16100Y52720D02*
X13600D01*
X15392Y51733D01*
Y53067D01*
G01X2408Y69787D02*
X2283Y69627D01*
X2200Y69440D01*
Y69227D01*
X2325Y68987D01*
X2533Y68800D01*
X2783Y68667D01*
X3200Y68560D01*
X3575Y68533D01*
X3950Y68587D01*
X4200Y68667D01*
X4450Y68827D01*
X4617Y69013D01*
X4700Y69200D01*
Y69387D01*
X4617Y69573D01*
X4492Y69733D01*
X4325Y69867D01*
G01Y70813D02*
X4533Y70973D01*
X4658Y71160D01*
X4700Y71400D01*
X4617Y71640D01*
X4450Y71827D01*
X4158Y71960D01*
X3825Y71987D01*
X3492Y71933D01*
X3283Y71800D01*
X3117Y71613D01*
X3075Y71427D01*
X3117Y71240D01*
X3283Y71000D01*
X2200Y71080D01*
Y71800D01*
G01X2508Y62187D02*
X2383Y62027D01*
X2300Y61840D01*
Y61627D01*
X2425Y61387D01*
X2633Y61200D01*
X2883Y61067D01*
X3300Y60960D01*
X3675Y60933D01*
X4050Y60987D01*
X4300Y61067D01*
X4550Y61227D01*
X4717Y61413D01*
X4800Y61600D01*
Y61787D01*
X4717Y61973D01*
X4592Y62133D01*
X4425Y62267D01*
G01X3758Y63293D02*
X3467Y63480D01*
X3300Y63640D01*
X3217Y63853D01*
X3300Y64040D01*
X3467Y64173D01*
X3717Y64280D01*
X4008Y64307D01*
X4258Y64280D01*
X4508Y64173D01*
X4717Y64013D01*
X4800Y63827D01*
X4717Y63613D01*
X4467Y63427D01*
X4092Y63320D01*
X3675Y63293D01*
X3133Y63347D01*
X2842Y63427D01*
X2550Y63560D01*
X2342Y63747D01*
X2300Y63933D01*
X2383Y64120D01*
X2592Y64253D01*
G01X91900Y11493D02*
X89400D01*
Y12507D01*
G01X90608Y12133D02*
Y11493D01*
G01X91900Y14733D02*
Y13667D01*
X89400D01*
Y14733D01*
G01X90608Y14307D02*
Y13667D01*
G01X89400Y16400D02*
X91900D01*
G01X89400Y15787D02*
Y17013D01*
G01X91900Y18600D02*
X89400D01*
X89900Y18280D01*
G01X91900D02*
Y18920D01*
G01X70900Y18600D02*
X70687Y18642D01*
X70500Y18808D01*
X70340Y19058D01*
X70233Y19350D01*
X70180Y19683D01*
Y20017D01*
X70233Y20350D01*
X70340Y20642D01*
X70500Y20892D01*
X70687Y21058D01*
X70900Y21100D01*
X71113Y21058D01*
X71300Y20892D01*
X71460Y20642D01*
X71567Y20350D01*
X71620Y20017D01*
Y19683D01*
X71567Y19350D01*
X71460Y19058D01*
X71300Y18808D01*
X71113Y18642D01*
X70900Y18600D01*
G01X71113Y19267D02*
X71433Y18600D01*
G01X73100D02*
Y21100D01*
X72780Y20600D01*
G01Y18600D02*
X73420D01*
G01X54900Y12467D02*
X52400D01*
Y13133D01*
X52525Y13347D01*
X52692Y13480D01*
X53025Y13533D01*
X53358Y13480D01*
X53567Y13320D01*
X53692Y13133D01*
Y12467D01*
G01Y13133D02*
X54900Y13533D01*
G01X52817Y14693D02*
X52567Y14853D01*
X52442Y15040D01*
X52400Y15253D01*
X52483Y15520D01*
X52692Y15707D01*
X52942Y15760D01*
X53192Y15733D01*
X53400Y15627D01*
X53817Y15093D01*
X54108Y14853D01*
X54525Y14693D01*
X54900Y14640D01*
Y15760D01*
G01X54467Y18800D02*
Y21300D01*
X55133D01*
X55347Y21175D01*
X55480Y21008D01*
X55533Y20675D01*
X55480Y20342D01*
X55320Y20133D01*
X55133Y20008D01*
X54467D01*
G01X55133D02*
X55533Y18800D01*
G01X57520D02*
Y21300D01*
X56533Y19508D01*
X57867D01*
G01X58500Y12367D02*
X56000D01*
Y13033D01*
X56125Y13247D01*
X56292Y13380D01*
X56625Y13433D01*
X56958Y13380D01*
X57167Y13220D01*
X57292Y13033D01*
Y12367D01*
G01Y13033D02*
X58500Y13433D01*
G01X58000Y14513D02*
X58292Y14673D01*
X58458Y14887D01*
X58500Y15127D01*
X58458Y15340D01*
X58250Y15553D01*
X58000Y15687D01*
X57750Y15713D01*
X57458Y15660D01*
X57250Y15473D01*
X57167Y15287D01*
Y15047D01*
G01Y15287D02*
X57042Y15447D01*
X56833Y15580D01*
X56583Y15633D01*
X56333Y15580D01*
X56125Y15447D01*
X56000Y15207D01*
X56042Y14967D01*
X56208Y14727D01*
G01X98800Y12900D02*
X101300D01*
G01X98800Y12287D02*
Y13513D01*
G01X101300Y14567D02*
X98800D01*
Y15207D01*
X98925Y15420D01*
X99217Y15580D01*
X99550Y15633D01*
X99883Y15580D01*
X100133Y15447D01*
X100258Y15207D01*
Y14567D01*
G01X100925Y16713D02*
X101133Y16873D01*
X101258Y17060D01*
X101300Y17300D01*
X101217Y17540D01*
X101050Y17727D01*
X100758Y17860D01*
X100425Y17887D01*
X100092Y17833D01*
X99883Y17700D01*
X99717Y17513D01*
X99675Y17327D01*
X99717Y17140D01*
X99883Y16900D01*
X98800Y16980D01*
Y17700D01*
G01X33413Y48000D02*
Y46208D01*
X33520Y45833D01*
X33733Y45583D01*
X34000Y45500D01*
X34267Y45583D01*
X34480Y45833D01*
X34587Y46208D01*
Y48000D01*
G01X36200Y45500D02*
Y48000D01*
X35880Y47500D01*
G01Y45500D02*
X36520D01*
G01X91600Y40293D02*
X89100D01*
Y41307D01*
G01X90308Y40933D02*
Y40293D01*
G01X91600Y43533D02*
Y42467D01*
X89100D01*
Y43533D01*
G01X90308Y43107D02*
Y42467D01*
G01X89100Y45200D02*
X91600D01*
G01X89100Y44587D02*
Y45813D01*
G01X91100Y46813D02*
X91392Y46973D01*
X91558Y47187D01*
X91600Y47427D01*
X91558Y47640D01*
X91350Y47853D01*
X91100Y47987D01*
X90850Y48013D01*
X90558Y47960D01*
X90350Y47773D01*
X90267Y47587D01*
Y47347D01*
G01Y47587D02*
X90142Y47747D01*
X89933Y47880D01*
X89683Y47933D01*
X89433Y47880D01*
X89225Y47747D01*
X89100Y47507D01*
X89142Y47267D01*
X89308Y47027D01*
G01X91900Y25593D02*
X89400D01*
Y26607D01*
G01X90608Y26233D02*
Y25593D01*
G01X91900Y28833D02*
Y27767D01*
X89400D01*
Y28833D01*
G01X90608Y28407D02*
Y27767D01*
G01X89400Y30500D02*
X91900D01*
G01X89400Y29887D02*
Y31113D01*
G01X89817Y32193D02*
X89567Y32353D01*
X89442Y32540D01*
X89400Y32753D01*
X89483Y33020D01*
X89692Y33207D01*
X89942Y33260D01*
X90192Y33233D01*
X90400Y33127D01*
X90817Y32593D01*
X91108Y32353D01*
X91525Y32193D01*
X91900Y32140D01*
Y33260D01*
G01X19200Y54913D02*
X20992D01*
X21367Y55020D01*
X21617Y55233D01*
X21700Y55500D01*
X21617Y55767D01*
X21367Y55980D01*
X20992Y56087D01*
X19200D01*
G01X19617Y57193D02*
X19367Y57353D01*
X19242Y57540D01*
X19200Y57753D01*
X19283Y58020D01*
X19492Y58207D01*
X19742Y58260D01*
X19992Y58233D01*
X20200Y58127D01*
X20617Y57593D01*
X20908Y57353D01*
X21325Y57193D01*
X21700Y57140D01*
Y58260D01*
G01X70600Y33900D02*
X70387Y33942D01*
X70200Y34108D01*
X70040Y34358D01*
X69933Y34650D01*
X69880Y34983D01*
Y35317D01*
X69933Y35650D01*
X70040Y35942D01*
X70200Y36192D01*
X70387Y36358D01*
X70600Y36400D01*
X70813Y36358D01*
X71000Y36192D01*
X71160Y35942D01*
X71267Y35650D01*
X71320Y35317D01*
Y34983D01*
X71267Y34650D01*
X71160Y34358D01*
X71000Y34108D01*
X70813Y33942D01*
X70600Y33900D01*
G01X70813Y34567D02*
X71133Y33900D01*
G01X72293Y35983D02*
X72453Y36233D01*
X72640Y36358D01*
X72853Y36400D01*
X73120Y36317D01*
X73307Y36108D01*
X73360Y35858D01*
X73333Y35608D01*
X73227Y35400D01*
X72693Y34983D01*
X72453Y34692D01*
X72293Y34275D01*
X72240Y33900D01*
X73360D01*
G01X70700Y47700D02*
X70487Y47742D01*
X70300Y47908D01*
X70140Y48158D01*
X70033Y48450D01*
X69980Y48783D01*
Y49117D01*
X70033Y49450D01*
X70140Y49742D01*
X70300Y49992D01*
X70487Y50158D01*
X70700Y50200D01*
X70913Y50158D01*
X71100Y49992D01*
X71260Y49742D01*
X71367Y49450D01*
X71420Y49117D01*
Y48783D01*
X71367Y48450D01*
X71260Y48158D01*
X71100Y47908D01*
X70913Y47742D01*
X70700Y47700D01*
G01X70913Y48367D02*
X71233Y47700D01*
G01X72313Y48200D02*
X72473Y47908D01*
X72687Y47742D01*
X72927Y47700D01*
X73140Y47742D01*
X73353Y47950D01*
X73487Y48200D01*
X73513Y48450D01*
X73460Y48742D01*
X73273Y48950D01*
X73087Y49033D01*
X72847D01*
G01X73087D02*
X73247Y49158D01*
X73380Y49367D01*
X73433Y49617D01*
X73380Y49867D01*
X73247Y50075D01*
X73007Y50200D01*
X72767Y50158D01*
X72527Y49992D01*
G01X27000Y24667D02*
X24500D01*
Y25333D01*
X24625Y25547D01*
X24792Y25680D01*
X25125Y25733D01*
X25458Y25680D01*
X25667Y25520D01*
X25792Y25333D01*
Y24667D01*
G01Y25333D02*
X27000Y25733D01*
G01Y27400D02*
X24500D01*
X25000Y27080D01*
G01X27000D02*
Y27720D01*
G01X47067Y52000D02*
Y54500D01*
X47733D01*
X47947Y54375D01*
X48080Y54208D01*
X48133Y53875D01*
X48080Y53542D01*
X47920Y53333D01*
X47733Y53208D01*
X47067D01*
G01X47733D02*
X48133Y52000D01*
G01X49293Y54083D02*
X49453Y54333D01*
X49640Y54458D01*
X49853Y54500D01*
X50120Y54417D01*
X50307Y54208D01*
X50360Y53958D01*
X50333Y53708D01*
X50227Y53500D01*
X49693Y53083D01*
X49453Y52792D01*
X49293Y52375D01*
X49240Y52000D01*
X50360D01*
G01X52000Y54500D02*
X51787Y54417D01*
X51627Y54208D01*
X51520Y53958D01*
X51440Y53625D01*
X51413Y53250D01*
X51440Y52875D01*
X51520Y52542D01*
X51627Y52292D01*
X51787Y52083D01*
X52000Y52000D01*
X52213Y52083D01*
X52373Y52292D01*
X52480Y52542D01*
X52560Y52875D01*
X52587Y53250D01*
X52560Y53625D01*
X52480Y53958D01*
X52373Y54208D01*
X52213Y54417D01*
X52000Y54500D01*
G01X55200Y27167D02*
X52700D01*
Y27833D01*
X52825Y28047D01*
X52992Y28180D01*
X53325Y28233D01*
X53658Y28180D01*
X53867Y28020D01*
X53992Y27833D01*
Y27167D01*
G01Y27833D02*
X55200Y28233D01*
G01X54825Y29313D02*
X55033Y29473D01*
X55158Y29660D01*
X55200Y29900D01*
X55117Y30140D01*
X54950Y30327D01*
X54658Y30460D01*
X54325Y30487D01*
X53992Y30433D01*
X53783Y30300D01*
X53617Y30113D01*
X53575Y29927D01*
X53617Y29740D01*
X53783Y29500D01*
X52700Y29580D01*
Y30300D01*
G01X55000Y40967D02*
X52500D01*
Y41633D01*
X52625Y41847D01*
X52792Y41980D01*
X53125Y42033D01*
X53458Y41980D01*
X53667Y41820D01*
X53792Y41633D01*
Y40967D01*
G01Y41633D02*
X55000Y42033D01*
G01Y43700D02*
X54958Y43887D01*
X54833Y44100D01*
X54625Y44233D01*
X54333Y44287D01*
X54042Y44233D01*
X53792Y44073D01*
X53667Y43833D01*
Y43567D01*
X53583Y43407D01*
X53375Y43273D01*
X53083Y43220D01*
X52792Y43300D01*
X52583Y43487D01*
X52500Y43700D01*
X52583Y43913D01*
X52792Y44100D01*
X53083Y44180D01*
X53375Y44127D01*
X53583Y43993D01*
X53667Y43833D01*
Y43567D01*
X53792Y43327D01*
X54042Y43167D01*
X54333Y43113D01*
X54625Y43167D01*
X54833Y43300D01*
X54958Y43513D01*
X55000Y43700D01*
G01X61267Y51600D02*
Y54100D01*
X61933D01*
X62147Y53975D01*
X62280Y53808D01*
X62333Y53475D01*
X62280Y53142D01*
X62120Y52933D01*
X61933Y52808D01*
X61267D01*
G01X61933D02*
X62333Y51600D01*
G01X64000D02*
Y54100D01*
X63680Y53600D01*
G01Y51600D02*
X64320D01*
G01X66200Y54100D02*
X65987Y54017D01*
X65827Y53808D01*
X65720Y53558D01*
X65640Y53225D01*
X65613Y52850D01*
X65640Y52475D01*
X65720Y52142D01*
X65827Y51892D01*
X65987Y51683D01*
X66200Y51600D01*
X66413Y51683D01*
X66573Y51892D01*
X66680Y52142D01*
X66760Y52475D01*
X66787Y52850D01*
X66760Y53225D01*
X66680Y53558D01*
X66573Y53808D01*
X66413Y54017D01*
X66200Y54100D01*
G01X55267Y33400D02*
Y35900D01*
X55933D01*
X56147Y35775D01*
X56280Y35608D01*
X56333Y35275D01*
X56280Y34942D01*
X56120Y34733D01*
X55933Y34608D01*
X55267D01*
G01X55933D02*
X56333Y33400D01*
G01X57947D02*
X58000Y33942D01*
X58080Y34400D01*
X58187Y34817D01*
X58320Y35275D01*
X58533Y35900D01*
X57467D01*
G01X87800Y70867D02*
X85300D01*
Y71533D01*
X85425Y71747D01*
X85592Y71880D01*
X85925Y71933D01*
X86258Y71880D01*
X86467Y71720D01*
X86592Y71533D01*
Y70867D01*
G01Y71533D02*
X87800Y71933D01*
G01Y73600D02*
X85300D01*
X85800Y73280D01*
G01X87800D02*
Y73920D01*
G01Y75800D02*
X85300D01*
X85800Y75480D01*
G01X87800D02*
Y76120D01*
G01X92000Y70867D02*
X89500D01*
Y71533D01*
X89625Y71747D01*
X89792Y71880D01*
X90125Y71933D01*
X90458Y71880D01*
X90667Y71720D01*
X90792Y71533D01*
Y70867D01*
G01Y71533D02*
X92000Y71933D01*
G01Y73600D02*
X89500D01*
X90000Y73280D01*
G01X92000D02*
Y73920D01*
G01X89917Y75293D02*
X89667Y75453D01*
X89542Y75640D01*
X89500Y75853D01*
X89583Y76120D01*
X89792Y76307D01*
X90042Y76360D01*
X90292Y76333D01*
X90500Y76227D01*
X90917Y75693D01*
X91208Y75453D01*
X91625Y75293D01*
X92000Y75240D01*
Y76360D01*
G01X78600Y70667D02*
X76100D01*
Y71333D01*
X76225Y71547D01*
X76392Y71680D01*
X76725Y71733D01*
X77058Y71680D01*
X77267Y71520D01*
X77392Y71333D01*
Y70667D01*
G01Y71333D02*
X78600Y71733D01*
G01Y73400D02*
X76100D01*
X76600Y73080D01*
G01X78600D02*
Y73720D01*
G01X78100Y75013D02*
X78392Y75173D01*
X78558Y75387D01*
X78600Y75627D01*
X78558Y75840D01*
X78350Y76053D01*
X78100Y76187D01*
X77850Y76213D01*
X77558Y76160D01*
X77350Y75973D01*
X77267Y75787D01*
Y75547D01*
G01Y75787D02*
X77142Y75947D01*
X76933Y76080D01*
X76683Y76133D01*
X76433Y76080D01*
X76225Y75947D01*
X76100Y75707D01*
X76142Y75467D01*
X76308Y75227D01*
G01X96700Y70967D02*
X94200D01*
Y71633D01*
X94325Y71847D01*
X94492Y71980D01*
X94825Y72033D01*
X95158Y71980D01*
X95367Y71820D01*
X95492Y71633D01*
Y70967D01*
G01Y71633D02*
X96700Y72033D01*
G01Y73700D02*
X94200D01*
X94700Y73380D01*
G01X96700D02*
Y74020D01*
G01Y76220D02*
X94200D01*
X95992Y75233D01*
Y76567D01*
G01X83100Y70667D02*
X80600D01*
Y71333D01*
X80725Y71547D01*
X80892Y71680D01*
X81225Y71733D01*
X81558Y71680D01*
X81767Y71520D01*
X81892Y71333D01*
Y70667D01*
G01Y71333D02*
X83100Y71733D01*
G01Y73400D02*
X80600D01*
X81100Y73080D01*
G01X83100D02*
Y73720D01*
G01X82725Y75013D02*
X82933Y75173D01*
X83058Y75360D01*
X83100Y75600D01*
X83017Y75840D01*
X82850Y76027D01*
X82558Y76160D01*
X82225Y76187D01*
X81892Y76133D01*
X81683Y76000D01*
X81517Y75813D01*
X81475Y75627D01*
X81517Y75440D01*
X81683Y75200D01*
X80600Y75280D01*
Y76000D01*
G01X101500Y70967D02*
X99000D01*
Y71633D01*
X99125Y71847D01*
X99292Y71980D01*
X99625Y72033D01*
X99958Y71980D01*
X100167Y71820D01*
X100292Y71633D01*
Y70967D01*
G01Y71633D02*
X101500Y72033D01*
G01Y73700D02*
X99000D01*
X99500Y73380D01*
G01X101500D02*
Y74020D01*
G01X100458Y75393D02*
X100167Y75580D01*
X100000Y75740D01*
X99917Y75953D01*
X100000Y76140D01*
X100167Y76273D01*
X100417Y76380D01*
X100708Y76407D01*
X100958Y76380D01*
X101208Y76273D01*
X101417Y76113D01*
X101500Y75927D01*
X101417Y75713D01*
X101167Y75527D01*
X100792Y75420D01*
X100375Y75393D01*
X99833Y75447D01*
X99542Y75527D01*
X99250Y75660D01*
X99042Y75847D01*
X99000Y76033D01*
X99083Y76220D01*
X99292Y76353D01*
G01X58500Y40867D02*
X56000D01*
Y41533D01*
X56125Y41747D01*
X56292Y41880D01*
X56625Y41933D01*
X56958Y41880D01*
X57167Y41720D01*
X57292Y41533D01*
Y40867D01*
G01Y41533D02*
X58500Y41933D01*
G01X58208Y43147D02*
X58417Y43333D01*
X58500Y43547D01*
X58417Y43760D01*
X58167Y43947D01*
X57792Y44080D01*
X57417Y44133D01*
X56958D01*
X56583Y44080D01*
X56250Y43947D01*
X56083Y43787D01*
X56000Y43600D01*
X56083Y43387D01*
X56250Y43227D01*
X56500Y43120D01*
X56833Y43067D01*
X57125Y43120D01*
X57417Y43253D01*
X57583Y43413D01*
X57625Y43600D01*
X57542Y43813D01*
X57333Y43973D01*
X56958Y44133D01*
G01X58400Y27067D02*
X55900D01*
Y27733D01*
X56025Y27947D01*
X56192Y28080D01*
X56525Y28133D01*
X56858Y28080D01*
X57067Y27920D01*
X57192Y27733D01*
Y27067D01*
G01Y27733D02*
X58400Y28133D01*
G01X57358Y29293D02*
X57067Y29480D01*
X56900Y29640D01*
X56817Y29853D01*
X56900Y30040D01*
X57067Y30173D01*
X57317Y30280D01*
X57608Y30307D01*
X57858Y30280D01*
X58108Y30173D01*
X58317Y30013D01*
X58400Y29827D01*
X58317Y29613D01*
X58067Y29427D01*
X57692Y29320D01*
X57275Y29293D01*
X56733Y29347D01*
X56442Y29427D01*
X56150Y29560D01*
X55942Y29747D01*
X55900Y29933D01*
X55983Y30120D01*
X56192Y30253D01*
G01X47000Y63400D02*
Y60900D01*
G01X46387Y63400D02*
X47613D01*
G01X48667Y60900D02*
Y63400D01*
X49307D01*
X49520Y63275D01*
X49680Y62983D01*
X49733Y62650D01*
X49680Y62317D01*
X49547Y62067D01*
X49307Y61942D01*
X48667D01*
G01X51400Y60900D02*
Y63400D01*
X51080Y62900D01*
G01Y60900D02*
X51720D01*
G01X65200Y63900D02*
Y61400D01*
G01X64587Y63900D02*
X65813D01*
G01X66867Y61400D02*
Y63900D01*
X67507D01*
X67720Y63775D01*
X67880Y63483D01*
X67933Y63150D01*
X67880Y62817D01*
X67747Y62567D01*
X67507Y62442D01*
X66867D01*
G01X69093Y63483D02*
X69253Y63733D01*
X69440Y63858D01*
X69653Y63900D01*
X69920Y63817D01*
X70107Y63608D01*
X70160Y63358D01*
X70133Y63108D01*
X70027Y62900D01*
X69493Y62483D01*
X69253Y62192D01*
X69093Y61775D01*
X69040Y61400D01*
X70160D01*
G01X98800Y47100D02*
X101300D01*
G01X98800Y46487D02*
Y47713D01*
G01X101300Y48767D02*
X98800D01*
Y49407D01*
X98925Y49620D01*
X99217Y49780D01*
X99550Y49833D01*
X99883Y49780D01*
X100133Y49647D01*
X100258Y49407D01*
Y48767D01*
G01X100800Y50913D02*
X101092Y51073D01*
X101258Y51287D01*
X101300Y51527D01*
X101258Y51740D01*
X101050Y51953D01*
X100800Y52087D01*
X100550Y52113D01*
X100258Y52060D01*
X100050Y51873D01*
X99967Y51687D01*
Y51447D01*
G01Y51687D02*
X99842Y51847D01*
X99633Y51980D01*
X99383Y52033D01*
X99133Y51980D01*
X98925Y51847D01*
X98800Y51607D01*
X98842Y51367D01*
X99008Y51127D01*
G01X98900Y29900D02*
X101400D01*
G01X98900Y29287D02*
Y30513D01*
G01X101400Y31567D02*
X98900D01*
Y32207D01*
X99025Y32420D01*
X99317Y32580D01*
X99650Y32633D01*
X99983Y32580D01*
X100233Y32447D01*
X100358Y32207D01*
Y31567D01*
G01X101400Y34620D02*
X98900D01*
X100692Y33633D01*
Y34967D01*
G01X43867Y21800D02*
X44000Y21550D01*
X44160Y21383D01*
X44347Y21300D01*
X44560Y21383D01*
X44720Y21550D01*
X44880Y21800D01*
X44933Y22133D01*
Y23800D01*
G01X46600Y21300D02*
Y23800D01*
X46280Y23300D01*
G01Y21300D02*
X46920D01*
G01X18608Y50787D02*
X18483Y50627D01*
X18400Y50440D01*
Y50227D01*
X18525Y49987D01*
X18733Y49800D01*
X18983Y49667D01*
X19400Y49560D01*
X19775Y49533D01*
X20150Y49587D01*
X20400Y49667D01*
X20650Y49827D01*
X20817Y50013D01*
X20900Y50200D01*
Y50387D01*
X20817Y50573D01*
X20692Y50733D01*
X20525Y50867D01*
G01X18817Y51893D02*
X18567Y52053D01*
X18442Y52240D01*
X18400Y52453D01*
X18483Y52720D01*
X18692Y52907D01*
X18942Y52960D01*
X19192Y52933D01*
X19400Y52827D01*
X19817Y52293D01*
X20108Y52053D01*
X20525Y51893D01*
X20900Y51840D01*
Y52960D01*
G01X24008Y50787D02*
X23883Y50627D01*
X23800Y50440D01*
Y50227D01*
X23925Y49987D01*
X24133Y49800D01*
X24383Y49667D01*
X24800Y49560D01*
X25175Y49533D01*
X25550Y49587D01*
X25800Y49667D01*
X26050Y49827D01*
X26217Y50013D01*
X26300Y50200D01*
Y50387D01*
X26217Y50573D01*
X26092Y50733D01*
X25925Y50867D01*
G01X25800Y51813D02*
X26092Y51973D01*
X26258Y52187D01*
X26300Y52427D01*
X26258Y52640D01*
X26050Y52853D01*
X25800Y52987D01*
X25550Y53013D01*
X25258Y52960D01*
X25050Y52773D01*
X24967Y52587D01*
Y52347D01*
G01Y52587D02*
X24842Y52747D01*
X24633Y52880D01*
X24383Y52933D01*
X24133Y52880D01*
X23925Y52747D01*
X23800Y52507D01*
X23842Y52267D01*
X24008Y52027D01*
G01X36708Y61687D02*
X36583Y61527D01*
X36500Y61340D01*
Y61127D01*
X36625Y60887D01*
X36833Y60700D01*
X37083Y60567D01*
X37500Y60460D01*
X37875Y60433D01*
X38250Y60487D01*
X38500Y60567D01*
X38750Y60727D01*
X38917Y60913D01*
X39000Y61100D01*
Y61287D01*
X38917Y61473D01*
X38792Y61633D01*
X38625Y61767D01*
G01X39000Y63300D02*
X38958Y63487D01*
X38833Y63700D01*
X38625Y63833D01*
X38333Y63887D01*
X38042Y63833D01*
X37792Y63673D01*
X37667Y63433D01*
Y63167D01*
X37583Y63007D01*
X37375Y62873D01*
X37083Y62820D01*
X36792Y62900D01*
X36583Y63087D01*
X36500Y63300D01*
X36583Y63513D01*
X36792Y63700D01*
X37083Y63780D01*
X37375Y63727D01*
X37583Y63593D01*
X37667Y63433D01*
Y63167D01*
X37792Y62927D01*
X38042Y62767D01*
X38333Y62713D01*
X38625Y62767D01*
X38833Y62900D01*
X38958Y63113D01*
X39000Y63300D01*
G01X31508Y61787D02*
X31383Y61627D01*
X31300Y61440D01*
Y61227D01*
X31425Y60987D01*
X31633Y60800D01*
X31883Y60667D01*
X32300Y60560D01*
X32675Y60533D01*
X33050Y60587D01*
X33300Y60667D01*
X33550Y60827D01*
X33717Y61013D01*
X33800Y61200D01*
Y61387D01*
X33717Y61573D01*
X33592Y61733D01*
X33425Y61867D01*
G01X33800Y63347D02*
X33258Y63400D01*
X32800Y63480D01*
X32383Y63587D01*
X31925Y63720D01*
X31300Y63933D01*
Y62867D01*
G01X19808Y25587D02*
X19683Y25427D01*
X19600Y25240D01*
Y25027D01*
X19725Y24787D01*
X19933Y24600D01*
X20183Y24467D01*
X20600Y24360D01*
X20975Y24333D01*
X21350Y24387D01*
X21600Y24467D01*
X21850Y24627D01*
X22017Y24813D01*
X22100Y25000D01*
Y25187D01*
X22017Y25373D01*
X21892Y25533D01*
X21725Y25667D01*
G01X22100Y27200D02*
X19600D01*
X20100Y26880D01*
G01X22100D02*
Y27520D01*
G01X110200Y71067D02*
X107700D01*
Y71733D01*
X107825Y71947D01*
X107992Y72080D01*
X108325Y72133D01*
X108658Y72080D01*
X108867Y71920D01*
X108992Y71733D01*
Y71067D01*
G01Y71733D02*
X110200Y72133D01*
G01Y73800D02*
X107700D01*
X108200Y73480D01*
G01X110200D02*
Y74120D01*
G01Y75947D02*
X109658Y76000D01*
X109200Y76080D01*
X108783Y76187D01*
X108325Y76320D01*
X107700Y76533D01*
Y75467D01*
G01X105600Y71067D02*
X103100D01*
Y71733D01*
X103225Y71947D01*
X103392Y72080D01*
X103725Y72133D01*
X104058Y72080D01*
X104267Y71920D01*
X104392Y71733D01*
Y71067D01*
G01Y71733D02*
X105600Y72133D01*
G01Y73800D02*
X103100D01*
X103600Y73480D01*
G01X105600D02*
Y74120D01*
G01Y76000D02*
X105558Y76187D01*
X105433Y76400D01*
X105225Y76533D01*
X104933Y76587D01*
X104642Y76533D01*
X104392Y76373D01*
X104267Y76133D01*
Y75867D01*
X104183Y75707D01*
X103975Y75573D01*
X103683Y75520D01*
X103392Y75600D01*
X103183Y75787D01*
X103100Y76000D01*
X103183Y76213D01*
X103392Y76400D01*
X103683Y76480D01*
X103975Y76427D01*
X104183Y76293D01*
X104267Y76133D01*
Y75867D01*
X104392Y75627D01*
X104642Y75467D01*
X104933Y75413D01*
X105225Y75467D01*
X105433Y75600D01*
X105558Y75813D01*
X105600Y76000D01*
G01X114800Y70967D02*
X112300D01*
Y71633D01*
X112425Y71847D01*
X112592Y71980D01*
X112925Y72033D01*
X113258Y71980D01*
X113467Y71820D01*
X113592Y71633D01*
Y70967D01*
G01Y71633D02*
X114800Y72033D01*
G01Y73700D02*
X112300D01*
X112800Y73380D01*
G01X114800D02*
Y74020D01*
G01X114508Y75447D02*
X114717Y75633D01*
X114800Y75847D01*
X114717Y76060D01*
X114467Y76247D01*
X114092Y76380D01*
X113717Y76433D01*
X113258D01*
X112883Y76380D01*
X112550Y76247D01*
X112383Y76087D01*
X112300Y75900D01*
X112383Y75687D01*
X112550Y75527D01*
X112800Y75420D01*
X113133Y75367D01*
X113425Y75420D01*
X113717Y75553D01*
X113883Y75713D01*
X113925Y75900D01*
X113842Y76113D01*
X113633Y76273D01*
X113258Y76433D01*
G54D11*
G01X10000Y10179D02*
X50000D01*
Y20021D01*
X10000D01*
Y10179D01*
G01X17062Y40819D02*
Y36488D01*
X12338D01*
Y40819D01*
G01X17062Y43181D02*
Y47512D01*
X12338D01*
Y43181D01*
G01X6331Y70887D02*
Y73643D01*
X10269D01*
Y70887D01*
G01X6331Y69313D02*
Y66557D01*
X10269D01*
Y69313D01*
G01Y61613D02*
Y58857D01*
X6331D01*
Y61613D01*
G01X10269Y63187D02*
Y65943D01*
X6331D01*
Y63187D01*
G01X87224Y19031D02*
Y9976D01*
X77776D01*
Y19424D01*
X87224D01*
Y19031D01*
G01X72413Y10763D02*
X74775D01*
Y11944D01*
G01X72413Y17063D02*
X74775D01*
Y15882D01*
G01X59531Y14306D02*
Y17062D01*
X63469D01*
Y14306D01*
G01X59531Y12732D02*
Y9976D01*
X63469D01*
Y12732D01*
G01X63887Y21569D02*
X66643D01*
Y17631D01*
X63887D01*
G01X62313Y21569D02*
X59557D01*
Y17631D01*
X62313D01*
G01X64069Y14306D02*
Y17062D01*
X68007D01*
Y14306D01*
G01X64069Y12732D02*
Y9976D01*
X68007D01*
Y12732D01*
G01X44424Y29307D02*
X46393D01*
Y31276D01*
G01X34976Y29307D02*
X33007D01*
Y31276D01*
G01X44424Y42693D02*
X46393D01*
Y40724D01*
G01X34976Y42693D02*
X33007D01*
Y40724D01*
G01X32383Y43874D02*
G03I-557J0D01*
G01X87224Y48118D02*
Y39063D01*
X77776D01*
Y48511D01*
X87224D01*
Y48118D01*
G01X87387Y49693D02*
G03I-556J0D01*
G01X87224Y33812D02*
Y24757D01*
X77776D01*
Y34205D01*
X87224D01*
Y33812D01*
G01X87387Y35387D02*
G03I-556J0D01*
G01Y20606D02*
G03I-556J0D01*
G01X26081Y57301D02*
G03I-557J0D01*
G01X22769Y59269D02*
X18831D01*
Y67537D01*
X22769D01*
Y59269D01*
G01X72413Y25544D02*
X74775D01*
Y26725D01*
G01X72413Y31844D02*
X74775D01*
Y30663D01*
G01X72413Y39850D02*
X74775D01*
Y41031D01*
G01X72413Y46150D02*
X74775D01*
Y44969D01*
G01X27769Y31613D02*
Y28857D01*
X23831D01*
Y31613D01*
G01X27769Y33187D02*
Y35943D01*
X23831D01*
Y33187D01*
G01X50387Y50569D02*
X53143D01*
Y46631D01*
X50387D01*
G01X48813Y50569D02*
X46057D01*
Y46631D01*
X48813D01*
G01X59531Y29087D02*
Y31843D01*
X63469D01*
Y29087D01*
G01X59531Y27513D02*
Y24757D01*
X63469D01*
Y27513D01*
G01X59531Y43393D02*
Y46149D01*
X63469D01*
Y43393D01*
G01X59531Y41819D02*
Y39063D01*
X63469D01*
Y41819D01*
G01X63987Y50669D02*
X66743D01*
Y46731D01*
X63987D01*
G01X62413Y50669D02*
X59657D01*
Y46731D01*
X62413D01*
G01X63887Y36369D02*
X66643D01*
Y32431D01*
X63887D01*
G01X62313Y36369D02*
X59557D01*
Y32431D01*
X62313D01*
G01X88607Y64713D02*
Y61957D01*
X84669D01*
Y64713D01*
G01X88607Y66287D02*
Y69043D01*
X84669D01*
Y66287D01*
G01X89207D02*
Y69043D01*
X93145D01*
Y66287D01*
G01X89207Y64713D02*
Y61957D01*
X93145D01*
Y64713D01*
G01X79531D02*
Y61957D01*
X75593D01*
Y64713D01*
G01X79531Y66287D02*
Y69043D01*
X75593D01*
Y66287D01*
G01X93745D02*
Y69043D01*
X97683D01*
Y66287D01*
G01X93745Y64713D02*
Y61957D01*
X97683D01*
Y64713D01*
G01X84069D02*
Y61957D01*
X80131D01*
Y64713D01*
G01X84069Y66287D02*
Y69043D01*
X80131D01*
Y66287D01*
G01X98283D02*
Y69043D01*
X102221D01*
Y66287D01*
G01X98283Y64713D02*
Y61957D01*
X102221D01*
Y64713D01*
G01X64031Y43393D02*
Y46149D01*
X67969D01*
Y43393D01*
G01X64031Y41819D02*
Y39063D01*
X67969D01*
Y41819D01*
G01X106759Y64713D02*
Y61957D01*
X102821D01*
Y64713D01*
G01X106759Y66287D02*
Y69043D01*
X102821D01*
Y66287D01*
G01X64031Y29087D02*
Y31843D01*
X67969D01*
Y29087D01*
G01X64031Y27513D02*
Y24757D01*
X67969D01*
Y27513D01*
G01X22386Y40819D02*
Y36488D01*
X17662D01*
Y40819D01*
G01X22386Y43181D02*
Y47512D01*
X17662D01*
Y43181D01*
G01X27710Y40819D02*
Y36488D01*
X22986D01*
Y40819D01*
G01X27710Y43181D02*
Y47512D01*
X22986D01*
Y43181D01*
G01X35638Y72050D02*
Y76381D01*
X40362D01*
Y72050D01*
G01X35638Y69688D02*
Y65357D01*
X40362D01*
Y69688D01*
G01X31100Y69687D02*
Y72443D01*
X35038D01*
Y69687D01*
G01X31100Y68113D02*
Y65357D01*
X35038D01*
Y68113D01*
G01X23269Y31613D02*
Y28857D01*
X19331D01*
Y31613D01*
G01X23269Y33187D02*
Y35943D01*
X19331D01*
Y33187D01*
G01X111297Y64713D02*
Y61957D01*
X107359D01*
Y64713D01*
G01X111297Y66287D02*
Y69043D01*
X107359D01*
Y66287D01*
G01X115835Y64713D02*
Y61957D01*
X111897D01*
Y64713D01*
G01X115835Y66287D02*
Y69043D01*
X111897D01*
Y66287D01*
M02*
