M48
INCH,TZ
T01C.008
T02C.01
T03C.03937
;LEADER: 12 
;HEADER: 
;CODE  : ASCII 
;FILE  : sophum_esc-1-4.drl for board #Taaaaba15064.tmp ... layers TOP and BOTTOM
;T01 Holesize 1. = 8.000000 Tolerance = +0.000000/-0.000000 PLATED MILS Quantity = 115
;T02 Holesize 2. = 10.000000 Tolerance = +0.000000/-0.000000 PLATED MILS Quantity = 36
;T03 Holesize 3. = 39.370000 Tolerance = +0.000000/-0.000000 PLATED MILS Quantity = 4
%
G90
T01
X38752Y63900
R02X-3937
X38752Y59963
R02X-3937
X37200Y38500
X39700Y36000
X37200Y33500
X42200Y33500
X42200Y38500
X42689Y59963
X46626Y59963
X42689Y63900
X46626Y63900
X50563Y59963
X54500Y59963
X58400Y60063
X50563Y63900
X54500Y63900
X58400Y64000
R03Y3937
X66274Y64000
X62337Y64000
X66274Y60063
X62337Y60063
X70211Y60063
X70211Y64000
X74148Y64000
R03Y3937
X78085Y75811
X85959Y75811
X82022Y75811
X89000Y51400
X87200Y45000
X87200Y41850
X89000Y37200
X87300Y30700
X87300Y27550
X89000Y22400
X87300Y15900
X87300Y12750
X90450Y12750
X93600Y12750
X90450Y15900
X93600Y15900
X90450Y19050
X93600Y19050
X92150Y22400
X90450Y27550
X93600Y27550
X90450Y30700
X93600Y30700
X90450Y33850
X93600Y33850
X92150Y37200
X90350Y41850
X93500Y41850
X90350Y45000
X93500Y45000
X90350Y48150
X93500Y48150
X92150Y51400
X107750Y54400
X104600Y54400
X107750Y51250
X104600Y51250
X107750Y48100
X104600Y48100
X107750Y44950
X104600Y44950
X107750Y37000
X104600Y37000
X107750Y33850
X104600Y33850
X107750Y30700
X104600Y30700
X107750Y27550
X104600Y27550
X107750Y19600
X104600Y19600
X107750Y16450
X104600Y16450
X107750Y13300
X104600Y13300
X107750Y10150
X104600Y10150
X110900Y10150
X114050Y10150
X110900Y13300
X114050Y13300
X110900Y16450
X114050Y16450
X110900Y19600
X114050Y19600
X110900Y27550
X114050Y27550
X110900Y30700
X114050Y30700
X110900Y33850
X114050Y33850
X110900Y37000
X114050Y37000
X110900Y44950
X114050Y44950
X110900Y48100
X114050Y48100
X110900Y51250
X114050Y51250
X110900Y54400
X114050Y54400
T02
X58081Y19600
X66038Y8500
X70641Y24072
X77700Y10800
X77700Y25600
X79942Y8958
X79942Y23758
X85059Y22400
X85059Y51400
X85059Y37200
X79941Y38100
X77699Y39942
X70641Y38378
X58181Y48700
X58081Y34400
X51214Y45195
X49207Y33047
X41200Y45800
X36300Y45700
X32900Y45600
X30284Y39900
X30193Y36984
X17895Y30786
X11295Y39047
X4895Y60786
X4895Y71714
X21400Y63600
X29783Y70514
X34714Y73822
X77562Y70519
X82100Y70519
X86638Y70519
X95714Y70519
X104790Y60481
X109328Y60481
X113866Y60481
T03
X15000Y15100
R03X10000
M30
