G04 ================== begin FILE IDENTIFICATION RECORD ==================*
G04 Layout Name:  C:/Users/abcd/Documents/GitHub/sophum_esc/PCB/sophum_esc.brd*
G04 Film Name:    TOP*
G04 File Format:  Gerber RS274X*
G04 File Origin:  Cadence Allegro 16.6-2015-S066*
G04 Origin Date:  Fri Aug 30 21:46:36 2019*
G04 *
G04 Layer:  BOARD GEOMETRY/OUTLINE*
G04 Layer:  ETCH/TOP*
G04 Layer:  PIN/TOP*
G04 Layer:  VIA CLASS/TOP*
G04 *
G04 Offset:    (0.00 0.00)*
G04 Mirror:    No*
G04 Mode:      Positive*
G04 Rotation:  0*
G04 FullContactRelief:  No*
G04 UndefLineWidth:     6.00*
G04 ================== end FILE IDENTIFICATION RECORD ====================*
%FSLAX55Y55*MOIN*%
%IR0*IPPOS*OFA0.00000B0.00000*MIA0B0*SFA1.00000B1.00000*%
%ADD20C,.016*%
%ADD14C,.02165*%
%ADD12R,.0315X.0315*%
%ADD23R,.01181X.01181*%
%ADD19C,.06299*%
%ADD21R,.07087X.07087*%
%ADD10R,.06299X.06299*%
%ADD13R,.02008X.02008*%
%ADD18R,.02008X.02008*%
%ADD11R,.04331X.02362*%
%ADD22R,.01181X.03543*%
%ADD24R,.03543X.01181*%
%ADD25R,.11811X.11811*%
%ADD15R,.02835X.04134*%
%ADD16R,.01378X.01181*%
%ADD17R,.02362X.01969*%
%ADD26C,.01*%
%ADD27C,.02*%
%ADD28C,.012*%
%ADD29C,.006*%
%ADD31C,.07702*%
%ADD30R,.13214X.13214*%
G75*
%LPD*%
G75*
G36*
G01X2004Y2004D02*
Y77996D01*
X41338D01*
G02X41621Y77313I0J-400D01*
G01X41298Y76991D01*
Y72091D01*
X41109Y71902D01*
X37709D01*
X36000Y70192D01*
X35724D01*
Y69916D01*
X35209Y69402D01*
X23609D01*
X23430Y69222D01*
X23051D01*
Y68843D01*
X22898Y68691D01*
Y66009D01*
X23051Y65857D01*
Y65458D01*
X23450D01*
X23609Y65298D01*
X28109D01*
X28498Y64909D01*
Y62391D01*
X27909Y61802D01*
X23509D01*
X23450Y61742D01*
X23051D01*
Y61343D01*
X18066Y56358D01*
G02X17384Y56641I-282J283D01*
G01Y57978D01*
X18549D01*
Y61742D01*
X17384D01*
Y63246D01*
X15855Y64775D01*
G02X16137Y65458I283J283D01*
G01X18549D01*
Y69222D01*
X12815D01*
Y68342D01*
X11665D01*
X10519Y69488D01*
X10006D01*
Y70192D01*
X6594D01*
Y66780D01*
X10006D01*
Y66819D01*
X10252Y66921D01*
X10835Y66338D01*
X12815D01*
Y65716D01*
X10006D01*
Y65720D01*
X6594D01*
Y62308D01*
X10006D01*
Y62312D01*
X13504D01*
X13733Y62084D01*
G02X13591Y61742I-141J-142D01*
G01X12815D01*
Y57978D01*
X13980D01*
Y57488D01*
X6698Y50206D01*
Y36695D01*
X11081Y32312D01*
X19594D01*
Y32308D01*
X23006D01*
Y32312D01*
X24094D01*
Y30497D01*
X13998Y20401D01*
Y18951D01*
X11149D01*
Y11249D01*
X18851D01*
Y18951D01*
X16002D01*
Y19571D01*
X25511Y29080D01*
X27506D01*
Y29784D01*
X30571D01*
X32541Y31755D01*
X33487D01*
Y31203D01*
X23998Y21715D01*
Y18821D01*
X23858Y18778D01*
G03X26142I1142J-3678D01*
G01X26002Y18821D01*
Y20885D01*
X34903Y29787D01*
X35454D01*
Y27424D01*
X37823D01*
X45628Y19620D01*
G02X45313Y18938I-283J-283D01*
G03X48838Y15413I-313J-3838D01*
G02X49520Y15728I399J32D01*
G01X54344Y10904D01*
X59794D01*
Y10200D01*
X63206D01*
Y14132D01*
X64332D01*
Y13428D01*
X67744D01*
Y14132D01*
X68257D01*
X68512Y14386D01*
X68758Y14284D01*
Y14196D01*
X72524D01*
Y17568D01*
X68758D01*
Y16884D01*
X68176D01*
X67990Y16698D01*
X67744Y16800D01*
Y16838D01*
X64332D01*
Y16134D01*
X63206D01*
Y16838D01*
X59794D01*
Y12906D01*
X55174D01*
X47765Y20316D01*
G02X48047Y20998I283J282D01*
G01X56139D01*
G02X56494Y20416I-1J-400D01*
G03X58590Y17890I1587J-816D01*
G01X58618Y17898D01*
X59780D01*
Y17894D01*
X66420D01*
Y18598D01*
X72685D01*
X74758Y16526D01*
Y15599D01*
X73876D01*
Y13643D01*
X73010Y12777D01*
Y8174D01*
X75886Y5298D01*
X81516D01*
X83502Y7284D01*
Y9962D01*
X83945D01*
X84209Y9698D01*
X95091D01*
X96302Y10909D01*
Y19991D01*
X96129Y20163D01*
X101254Y25287D01*
Y58690D01*
G02X101936Y58972I400J-1D01*
G01X103610Y57298D01*
X110508D01*
X112598Y59389D01*
Y65408D01*
X115572D01*
Y68820D01*
X114868D01*
Y70449D01*
X110315Y75002D01*
X85166D01*
X82438Y72273D01*
X82340Y72287D01*
G03X80666Y69458I-240J-1768D01*
G02X80394Y68823I-322J-238D01*
G01Y64888D01*
X79268D01*
Y68823D01*
G02X78996Y69458I50J397D01*
G03X76128I-1434J1061D01*
G02X75856Y68823I-322J-238D01*
G01Y62180D01*
X76560D01*
Y59377D01*
X72385Y55202D01*
X45784D01*
X37553Y46970D01*
G03X34878Y46778I-1253J-1270D01*
G02X34256Y46760I-318J242D01*
G03X33140Y43832I-1356J-1160D01*
G01X33238Y43846D01*
X33778Y43306D01*
Y42213D01*
X33487D01*
Y40245D01*
X32041D01*
X31999Y40390D01*
G03X30537Y38134I-1715J-490D01*
G01X30636Y38148D01*
X30832Y37952D01*
X31125D01*
Y37661D01*
X36071D01*
Y39628D01*
X43329D01*
Y33724D01*
X48275D01*
Y34014D01*
X48831D01*
X54807Y39990D01*
X59794D01*
Y39286D01*
X63206D01*
Y43218D01*
X64294D01*
Y42514D01*
X67706D01*
Y43218D01*
X68326D01*
X68512Y43404D01*
X68758Y43302D01*
Y43283D01*
X72524D01*
Y46655D01*
X68758D01*
Y45970D01*
X68245D01*
X68047Y45772D01*
G02X67706Y45914I-141J142D01*
G01Y45926D01*
X64294D01*
Y45222D01*
X63206D01*
Y45926D01*
X59794D01*
Y41994D01*
X55765D01*
G02X55483Y42676I1J400D01*
G01X57100Y44293D01*
Y46625D01*
G02X57624Y47005I400J0D01*
G03X58690Y46990I557J1695D01*
G01X58718Y46998D01*
X59880D01*
Y46994D01*
X66520D01*
Y47698D01*
X72385D01*
X74758Y45326D01*
Y44686D01*
X73876D01*
Y42730D01*
X73010Y41864D01*
Y37202D01*
X69916D01*
X68616Y38502D01*
X57484D01*
X49284Y30302D01*
X46815D01*
X45913Y31203D01*
Y32371D01*
X43946D01*
Y32372D01*
X36071D01*
Y36308D01*
X31125D01*
Y36218D01*
X30868D01*
X29866Y35216D01*
X27506D01*
Y35720D01*
X24094D01*
Y35716D01*
X23006D01*
Y35720D01*
X19594D01*
Y35716D01*
X12491D01*
X10102Y38105D01*
Y48796D01*
X11716Y50410D01*
G02X12398Y50128I282J-283D01*
G01Y43009D01*
X12424Y42984D01*
Y42676D01*
X12731D01*
X13409Y41998D01*
X26591D01*
X27269Y42676D01*
X27624D01*
Y44932D01*
X38591Y55898D01*
X54691D01*
X56402Y57609D01*
Y76791D01*
X55879Y77313D01*
G02X56162Y77996I283J283D01*
G01X117996D01*
Y2004D01*
X2004D01*
G37*
G36*
G01X13100Y43300D02*
Y50400D01*
X23800Y61100D01*
X28200D01*
X29200Y62100D01*
Y65200D01*
X28400Y66000D01*
X23900D01*
X23600Y66300D01*
Y68400D01*
X23900Y68700D01*
X35500D01*
X38000Y71200D01*
X41400D01*
X42000Y71800D01*
Y76700D01*
X42800Y77500D01*
X54700D01*
X55700Y76500D01*
Y57900D01*
X54400Y56600D01*
X38300D01*
X26900Y45200D01*
Y43300D01*
X26300Y42700D01*
X13700D01*
X13100Y43300D01*
G37*
G36*
G01X99250Y62180D02*
Y26117D01*
X94135Y21002D01*
X89709D01*
X88698Y19991D01*
Y18091D01*
X88109Y17502D01*
X83891D01*
Y19438D01*
X83502D01*
Y19615D01*
X82116Y21000D01*
X83502Y22385D01*
Y24744D01*
X83964D01*
X84209Y24498D01*
X95091D01*
X96302Y25709D01*
Y34791D01*
X96129Y34963D01*
X98602Y37435D01*
Y62180D01*
X99250D01*
G37*
G36*
G01X76201Y8258D02*
Y11458D01*
X76601Y11858D01*
X80701D01*
X81101Y11458D01*
Y8358D01*
X80601Y7858D01*
X76601D01*
X76201Y8258D01*
G37*
G36*
G01X94800Y10400D02*
X84500D01*
X84100Y10800D01*
Y12400D01*
X83900Y12600D01*
X79100D01*
X78700Y13000D01*
Y18500D01*
X78998Y18798D01*
X80602D01*
X80850Y18550D01*
Y17050D01*
X81100Y16800D01*
X88400D01*
X89400Y17800D01*
Y19700D01*
X90000Y20300D01*
X95000D01*
X95600Y19700D01*
Y11200D01*
X94800Y10400D01*
G37*
G36*
G01X78738Y53802D02*
X74783D01*
G02X74501Y54484I1J400D01*
G01X78564Y58547D01*
Y62180D01*
X79268D01*
Y62884D01*
X80394D01*
Y62180D01*
X83806D01*
Y62884D01*
X84932D01*
Y62180D01*
X88344D01*
Y66112D01*
X89470D01*
Y62180D01*
X91466D01*
X94798Y58847D01*
Y50865D01*
X94035Y50102D01*
X89709D01*
X88698Y49091D01*
Y47191D01*
X88109Y46602D01*
X83891D01*
Y48524D01*
X83502D01*
Y49038D01*
X78738Y53802D01*
G37*
G36*
G01X70193Y22990D02*
X70182Y23002D01*
X47189D01*
X45189Y25002D01*
G02X45471Y25684I283J282D01*
G01X59794D01*
Y24980D01*
X63206D01*
Y28912D01*
X64294D01*
Y28208D01*
X67706D01*
Y28912D01*
X68326D01*
X68512Y29098D01*
X68758Y28996D01*
Y28977D01*
X72524D01*
Y31495D01*
G02X73206Y31777I400J-1D01*
G01X74262Y30721D01*
G02X74121Y30380I-141J-141D01*
G01X73876D01*
Y28424D01*
X73010Y27558D01*
Y23002D01*
X71100D01*
X71089Y22990D01*
X70193D01*
G37*
G36*
G01X83891Y32302D02*
Y34218D01*
X83502D01*
Y34314D01*
X82566Y35250D01*
X83502Y36185D01*
Y39050D01*
X83958D01*
X84209Y38798D01*
X95091D01*
X95916Y39624D01*
G02X96598Y39341I282J-283D01*
G01Y38265D01*
X94135Y35802D01*
X89709D01*
X88698Y34791D01*
Y32891D01*
X88109Y32302D01*
X83891D01*
G37*
G36*
G01X76201Y26258D02*
X76601Y26658D01*
X80701D01*
X81101Y26258D01*
Y23158D01*
X80601Y22658D01*
X76601D01*
X76201Y23058D01*
Y26258D01*
G37*
G36*
G01X80602Y37002D02*
X76598D01*
X76200Y37400D01*
Y40600D01*
X76600Y41000D01*
X80700D01*
X81100Y40600D01*
Y37500D01*
X80602Y37002D01*
G37*
G36*
G01X94800Y25200D02*
X84500D01*
X84100Y25600D01*
Y27200D01*
X83900Y27400D01*
X79100D01*
X78700Y27800D01*
Y33300D01*
X79098Y33698D01*
X80502D01*
X80850Y33350D01*
Y31850D01*
X81100Y31600D01*
X88400D01*
X89400Y32600D01*
Y34500D01*
X90000Y35100D01*
X95000D01*
X95600Y34500D01*
Y26000D01*
X94800Y25200D01*
G37*
G36*
G01Y39500D02*
X84500D01*
X84100Y39900D01*
Y41500D01*
X83900Y41700D01*
X80992D01*
X80991Y41702D01*
X79098D01*
X78700Y42100D01*
Y47600D01*
X79100Y48000D01*
X80500D01*
X80850Y47650D01*
Y46150D01*
X81100Y45900D01*
X88400D01*
X89400Y46900D01*
Y48800D01*
X90000Y49400D01*
X95000D01*
X95600Y48800D01*
Y40300D01*
X94800Y39500D01*
G37*
G36*
G01X109678Y59302D02*
X104440D01*
X103522Y60219D01*
Y65408D01*
X106496D01*
Y67565D01*
G02X107178Y67847I400J-1D01*
G01X107622Y67403D01*
Y65408D01*
X110596D01*
Y60219D01*
X109678Y59302D01*
G37*
%LPC*%
G75*
G54D31*
X35000Y15100D03*
G54D30*
X109400Y14798D03*
Y32200D03*
Y49602D03*
%LPD*%
G75*
G54D10*
X15000Y15100D03*
G54D11*
X15682Y59860D03*
Y67340D03*
X25918D03*
Y63600D03*
Y59860D03*
G54D20*
X90450Y19050D03*
X93600D03*
X104600Y10150D03*
Y13300D03*
Y16450D03*
Y19600D03*
X87300Y12750D03*
Y15900D03*
X93600Y12750D03*
X90450D03*
Y15900D03*
X93600D03*
X85959Y75811D03*
X82022D03*
X78085D03*
X74148D03*
Y71874D03*
Y67937D03*
Y64000D03*
X92150Y22400D03*
X89000D03*
X92150Y51400D03*
X89000D03*
X92150Y37200D03*
X89000D03*
X39700Y36000D03*
X37200Y33500D03*
X42200D03*
Y38500D03*
X37200D03*
X58400Y75811D03*
Y71874D03*
Y67937D03*
Y60063D03*
X62337D03*
X66274D03*
X70211D03*
Y64000D03*
X66274D03*
X62337D03*
X58400D03*
X54500Y59963D03*
Y63900D03*
X50563D03*
Y59963D03*
X46626D03*
X42689D03*
X38752D03*
X34815D03*
X30878D03*
Y63900D03*
X34815D03*
X38752D03*
X42689D03*
X46626D03*
X104600Y27550D03*
Y30700D03*
Y33850D03*
Y37000D03*
X87300Y27550D03*
Y30700D03*
X93600Y27550D03*
X90450D03*
Y30700D03*
X93600D03*
X90450Y33850D03*
X93600D03*
X87200Y45000D03*
X90350D03*
X93500D03*
Y41850D03*
X90350D03*
X87200D03*
X90350Y48150D03*
X93500D03*
X104600Y44950D03*
Y48100D03*
Y51250D03*
Y54400D03*
X107750Y10150D03*
X110900D03*
X114050D03*
Y13300D03*
X110900D03*
X107750D03*
Y16450D03*
X110900D03*
X114050D03*
Y19600D03*
X110900D03*
X107750D03*
Y27550D03*
X110900D03*
X114050D03*
Y30700D03*
X110900D03*
X107750D03*
Y33850D03*
X110900D03*
X114050D03*
Y37000D03*
X110900D03*
X107750D03*
Y44950D03*
X110900D03*
X114050D03*
Y48100D03*
X110900D03*
X107750D03*
Y51250D03*
X110900D03*
X114050D03*
Y54400D03*
X110900D03*
X107750D03*
G54D21*
X39700Y36000D03*
G54D12*
X14700Y39047D03*
Y44953D03*
X20024Y39047D03*
Y44953D03*
X25348Y39047D03*
Y44953D03*
X38000Y73822D03*
Y67916D03*
G54D22*
X36747Y42102D03*
X38716D03*
X40684D03*
X42653D03*
Y29898D03*
X40684D03*
X38716D03*
X36747D03*
G54D13*
X8300Y71714D03*
Y68486D03*
Y60786D03*
Y64014D03*
X61500Y15133D03*
Y11905D03*
X66038Y15133D03*
Y11905D03*
X25800Y30786D03*
Y34014D03*
X61500Y29914D03*
Y26686D03*
Y44220D03*
Y40992D03*
X86638Y63886D03*
Y67114D03*
X91176D03*
Y63886D03*
X77562D03*
Y67114D03*
X95714D03*
Y63886D03*
X82100D03*
Y67114D03*
X100252D03*
Y63886D03*
X66000Y44220D03*
Y40992D03*
Y29914D03*
Y26686D03*
X33069Y70514D03*
Y67286D03*
X21300Y30786D03*
Y34014D03*
X109328Y63886D03*
Y67114D03*
X104790Y63886D03*
Y67114D03*
X113866Y63886D03*
Y67114D03*
G54D23*
X44621Y40921D03*
Y31079D03*
X34779D03*
Y40921D03*
G54D14*
X4895Y71714D03*
X11295Y39047D03*
X4895Y60786D03*
X66038Y8500D03*
X77700Y10800D03*
X79942Y8958D03*
X58081Y19600D03*
X85059Y22400D03*
Y51400D03*
Y37200D03*
X49207Y33047D03*
X30193Y36984D03*
X70641Y38378D03*
X104790Y60481D03*
X29783Y70514D03*
X34714Y73822D03*
X21400Y63600D03*
X17895Y30786D03*
X70641Y24072D03*
X77700Y25600D03*
X79942Y23758D03*
X77699Y39942D03*
X58081Y34400D03*
X58181Y48700D03*
X79941Y38100D03*
X95714Y70519D03*
X77562D03*
X30284Y39900D03*
X82100Y70519D03*
X32900Y45600D03*
X86638Y70519D03*
X36300Y45700D03*
X41200Y45800D03*
X51214Y45195D03*
X113866Y60481D03*
X109328D03*
G54D15*
X80571Y14700D03*
X84429D03*
X80571Y43787D03*
X84429D03*
X80571Y29481D03*
X84429D03*
G54D24*
X45802Y38953D03*
Y36984D03*
Y35016D03*
Y33047D03*
X33598D03*
Y35016D03*
Y36984D03*
Y38953D03*
G54D16*
X85059Y11255D03*
X82500D03*
X79941D03*
Y18145D03*
X82500D03*
X85059D03*
Y40342D03*
X82500D03*
X79941D03*
Y47232D03*
X82500D03*
X85059D03*
Y26036D03*
X82500D03*
X79941D03*
Y32926D03*
X82500D03*
X85059D03*
G54D25*
X48800Y71558D03*
X66800D03*
X109400Y14798D03*
Y49602D03*
Y32200D03*
G54D26*
G01X33598Y35016D02*
X31366D01*
X30364Y34014D01*
X25800D01*
G54D17*
X75759Y13913D03*
X70641Y11944D03*
Y15882D03*
X75759Y28694D03*
X70641Y26725D03*
Y30663D03*
X75759Y43000D03*
X70641Y41031D03*
Y44969D03*
G54D27*
G01X8300Y71714D02*
X4895D01*
G01X14700Y39047D02*
X11295D01*
G01X20024D02*
X14700D01*
G01X8300Y60786D02*
X4895D01*
G01X21300Y34014D02*
X11786D01*
X8400Y37400D01*
Y49501D01*
X15682Y56783D01*
Y59860D01*
G01D02*
Y62541D01*
X14209Y64014D01*
X8300D01*
G01X66038Y11905D02*
X68621D01*
X68660Y11944D01*
X70641D01*
G01X66038Y11905D02*
Y8500D01*
G01X70641Y41031D02*
Y38378D01*
G01X66000Y40992D02*
X68621D01*
X68660Y41031D01*
X70641D01*
G01X33069Y70514D02*
X29783D01*
G01X38000Y73822D02*
X34714D01*
G01X25918Y63600D02*
X21400D01*
G01X25348Y39047D02*
X20024D01*
G01X21300Y30786D02*
X17895D01*
G01X70641Y26725D02*
Y24072D01*
G01X66000Y26686D02*
X68621D01*
X68660Y26725D01*
X70641D01*
G01X25800Y34014D02*
X21300D01*
G01X61486Y34400D02*
X58081D01*
G01X61586Y48700D02*
X58181D01*
G01X61486Y19600D02*
X58081D01*
G01X113866Y63886D02*
Y60481D01*
G01X109328Y63886D02*
Y60481D01*
G01X104790Y63886D02*
Y60481D01*
G54D18*
X64714Y19600D03*
X61486D03*
X51214Y48600D03*
X47986D03*
X64814Y48700D03*
X61586D03*
X64714Y34400D03*
X61486D03*
G54D28*
G01X45802Y33047D02*
X49207D01*
G01X33598Y36984D02*
X30193D01*
G54D19*
X45000Y15100D03*
X35000D03*
X25000D03*
G54D29*
G01X0Y0D02*
Y80000D01*
X120000D01*
Y0D01*
X0D01*
G01X25800Y30786D02*
X15000Y19986D01*
Y15100D01*
G01X15682Y67340D02*
X11250D01*
X10104Y68486D01*
X8300D01*
G01X34779Y31079D02*
X25000Y21300D01*
Y15100D01*
G01X61500Y15133D02*
X66038D01*
G01X70641Y15882D02*
X68591D01*
X67842Y15133D01*
X66038D01*
G01X75759Y13913D02*
X75563D01*
X74012Y12362D01*
Y8589D01*
X76301Y6300D01*
X81101D01*
X82500Y7699D01*
Y11255D01*
G01X75759Y13913D02*
Y16941D01*
X73100Y19600D01*
X64714D01*
G01X38716Y29898D02*
Y27948D01*
X54759Y11905D01*
X61500D01*
G01X82500Y18145D02*
Y19200D01*
X81900Y19800D01*
X75600D01*
X73400Y22000D01*
X71515D01*
X71504Y21989D01*
X69778D01*
X69767Y22000D01*
X46774D01*
X40684Y28090D01*
Y29898D01*
G01X33598Y33047D02*
X32417D01*
X30156Y30786D01*
X25800D01*
G01X100252Y63886D02*
Y25702D01*
X93600Y19050D01*
G01X61500Y26686D02*
X44684D01*
X42653Y28717D01*
Y29898D01*
G01Y42102D02*
Y43283D01*
X43810Y44440D01*
X43826D01*
X47986Y48600D01*
G01X82500Y32926D02*
Y33899D01*
X81699Y34700D01*
X74001D01*
X72501Y36200D01*
X69501D01*
X68201Y37500D01*
X57899D01*
X49699Y29300D01*
X46400D01*
X44621Y31079D01*
G01X45802Y35016D02*
X48416D01*
X54392Y40992D01*
X61500D01*
G01X82500Y47232D02*
Y48623D01*
X78323Y52800D01*
X59335D01*
X56098Y49563D01*
Y44708D01*
X48374Y36984D01*
X45802D01*
G01X75759Y28694D02*
X75563D01*
X74012Y27143D01*
Y23388D01*
X76100Y21300D01*
X81000D01*
X82500Y22800D01*
Y26036D01*
G01X75759Y28694D02*
Y30641D01*
X72000Y34400D01*
X64714D01*
G01X66000Y29914D02*
X67911D01*
X68660Y30663D01*
X70641D01*
G01X61500Y29914D02*
X66000D01*
G01Y44220D02*
X67911D01*
X68660Y44969D01*
X70641D01*
G01X61500Y44220D02*
X66000D01*
G01X75759Y43000D02*
Y45741D01*
X72800Y48700D01*
X64814D01*
G01X82500Y40342D02*
Y36600D01*
X81900Y36000D01*
X75400D01*
X74012Y37388D01*
Y41449D01*
X75563Y43000D01*
X75759D01*
G01X95714Y63886D02*
X97600Y62000D01*
Y37850D01*
X93600Y33850D01*
G01X91176Y63886D02*
X95800Y59262D01*
Y50450D01*
X93500Y48150D01*
G01X95714Y70519D02*
X101385D01*
X104790Y67114D01*
G01X95714D02*
Y70519D01*
G01X77562Y67114D02*
Y70519D01*
G01X33598Y38953D02*
X31247D01*
X30300Y39900D01*
X30284D01*
G01X113866Y67114D02*
X112062D01*
X111597Y66649D01*
Y59804D01*
X110093Y58300D01*
X104025D01*
X102521Y59804D01*
Y65040D01*
X100447Y67114D01*
X100252D01*
G01X82100D02*
Y70519D01*
G01X113866Y67114D02*
Y70034D01*
X109900Y74000D01*
X85581D01*
X82100Y70519D01*
G01X32900Y45600D02*
X34779Y43721D01*
Y40921D01*
G01X86638Y67114D02*
Y70519D01*
G01Y67114D02*
X91176D01*
G01D02*
Y69076D01*
X94800Y72700D01*
X103742D01*
X109328Y67114D01*
G01X36747Y42102D02*
Y45253D01*
X36300Y45700D01*
G01X82100Y63886D02*
X77562D01*
G01X86638D02*
X82100D01*
G01X77562D02*
Y58962D01*
X72800Y54200D01*
X46199D01*
X38716Y46717D01*
Y42102D01*
G01X40684D02*
Y45284D01*
X41200Y45800D01*
G01X51214Y48600D02*
Y45195D01*
M02*
